<svg xmlns="http://www.w3.org/2000/svg" xmlns:xlink="http://www.w3.org/1999/xlink" width="393.56" height="173.47" viewBox="0 0 393.56 173.47">
  <defs>
    <linearGradient id="linear-gradient" x1="0.5" x2="0.5" y2="1" gradientUnits="objectBoundingBox">
      <stop offset="0" stop-color="#93d690"/>
      <stop offset="1" stop-color="#fff"/>
    </linearGradient>
    <filter id="Ellipse_316" x="68.739" y="64.102" width="29" height="29" filterUnits="userSpaceOnUse">
      <feOffset dy="3" input="SourceAlpha"/>
      <feGaussianBlur stdDeviation="3" result="blur"/>
      <feFlood flood-opacity="0.161"/>
      <feComposite operator="in" in2="blur"/>
      <feComposite in="SourceGraphic"/>
    </filter>
    <filter id="Ellipse_317" x="310.979" y="106.102" width="29" height="29" filterUnits="userSpaceOnUse">
      <feOffset dy="3" input="SourceAlpha"/>
      <feGaussianBlur stdDeviation="3" result="blur-2"/>
      <feFlood flood-opacity="0.161"/>
      <feComposite operator="in" in2="blur-2"/>
      <feComposite in="SourceGraphic"/>
    </filter>
  </defs>
  <g id="Group_41370" data-name="Group 41370" transform="translate(-937.64 -2431.8)">
    <path id="Path_1430" data-name="Path 1430" d="M5454,18315.387s14.542-29.348,57.063-30.947,77.382,31.221,113.02,24.545,37.315-13.109,74.157-13.463,33.695,40.174,59.722,31.482,60.239-34.912,60.239-34.912h0v66.1H5454Z" transform="translate(-4487.002 -15777.383)" fill="url(#linear-gradient)"/>
    <path id="Path_3528" data-name="Path 3528" d="M3.44-2.88V0H2.62V-2.89L-.18-7.12H.78l2.26,3.5L5.3-7.12h.94Zm6.85.34H6.6a2.159,2.159,0,0,0,.445,1.45A1.6,1.6,0,0,0,8.31-.6a2.542,2.542,0,0,0,1.62-.59l.27.59a2.344,2.344,0,0,1-.845.49A3.176,3.176,0,0,1,8.3.07a2.449,2.449,0,0,1-1.85-.7,2.63,2.63,0,0,1-.67-1.9,2.991,2.991,0,0,1,.3-1.365,2.238,2.238,0,0,1,.84-.925,2.311,2.311,0,0,1,1.23-.33,1.972,1.972,0,0,1,1.57.655,2.658,2.658,0,0,1,.57,1.8ZM8.16-4.52a1.417,1.417,0,0,0-1.025.38A1.836,1.836,0,0,0,6.63-3.07H9.56a1.721,1.721,0,0,0-.415-1.08A1.3,1.3,0,0,0,8.16-4.52ZM13.22.07a2.939,2.939,0,0,1-2.01-.65l.27-.6a2.79,2.79,0,0,0,.83.46,2.962,2.962,0,0,0,.94.14,1.575,1.575,0,0,0,.865-.195.636.636,0,0,0,.3-.565.614.614,0,0,0-.2-.48,1.459,1.459,0,0,0-.66-.28l-.85-.2a1.875,1.875,0,0,1-.975-.5,1.2,1.2,0,0,1-.345-.86,1.3,1.3,0,0,1,.53-1.075,2.207,2.207,0,0,1,1.4-.415,2.917,2.917,0,0,1,1,.17,2.117,2.117,0,0,1,.79.49l-.27.59a2.338,2.338,0,0,0-1.52-.59,1.451,1.451,0,0,0-.835.2.66.66,0,0,0-.3.575.652.652,0,0,0,.185.49,1.286,1.286,0,0,0,.6.28l.85.21a2.136,2.136,0,0,1,1.04.5,1.174,1.174,0,0,1,.34.875,1.228,1.228,0,0,1-.53,1.04A2.381,2.381,0,0,1,13.22.07Zm4.29-4.46v2.75a1.077,1.077,0,0,0,.23.785.891.891,0,0,0,.65.225,1.639,1.639,0,0,0,.54-.09v.69a2.275,2.275,0,0,1-.7.1A1.521,1.521,0,0,1,17.1-.335,1.62,1.62,0,0,1,16.7-1.53V-4.39h-.98v-.64h.98V-6.32l.81-.29v1.58h1.44v.64Zm6.63,1.85H20.45A2.159,2.159,0,0,0,20.9-1.09,1.6,1.6,0,0,0,22.16-.6a2.542,2.542,0,0,0,1.62-.59l.27.59a2.344,2.344,0,0,1-.845.49A3.176,3.176,0,0,1,22.15.07a2.449,2.449,0,0,1-1.85-.7,2.63,2.63,0,0,1-.67-1.9,2.991,2.991,0,0,1,.3-1.365,2.238,2.238,0,0,1,.84-.925A2.311,2.311,0,0,1,22-5.15a1.972,1.972,0,0,1,1.57.655,2.658,2.658,0,0,1,.57,1.8ZM22.01-4.52a1.417,1.417,0,0,0-1.025.38,1.836,1.836,0,0,0-.505,1.07h2.93a1.721,1.721,0,0,0-.415-1.08A1.3,1.3,0,0,0,22.01-4.52Zm5.7-.63a1.67,1.67,0,0,1,.46.06l-.02.74a1.611,1.611,0,0,0-.53-.08,1.291,1.291,0,0,0-1.085.455A1.742,1.742,0,0,0,26.18-2.87V0h-.81V-3.62a11.266,11.266,0,0,0-.08-1.41h.77l.08.93a1.53,1.53,0,0,1,.61-.78A1.736,1.736,0,0,1,27.71-5.15Zm5.61-2.21V0h-.8V-.91a1.594,1.594,0,0,1-.665.725A2.045,2.045,0,0,1,30.82.07a2.081,2.081,0,0,1-1.165-.33,2.187,2.187,0,0,1-.785-.925,3.2,3.2,0,0,1-.28-1.375,3.178,3.178,0,0,1,.275-1.365,2.087,2.087,0,0,1,.785-.9,2.155,2.155,0,0,1,1.17-.32,2.018,2.018,0,0,1,1.03.255,1.612,1.612,0,0,1,.66.715V-7.36ZM30.98-.6a1.37,1.37,0,0,0,1.14-.505,2.263,2.263,0,0,0,.4-1.435,2.245,2.245,0,0,0-.4-1.425,1.37,1.37,0,0,0-1.14-.5,1.419,1.419,0,0,0-1.155.5,2.149,2.149,0,0,0-.415,1.41,2.247,2.247,0,0,0,.415,1.445A1.4,1.4,0,0,0,30.98-.6Zm8.34-4.43V0h-.8V-.91a1.594,1.594,0,0,1-.665.725A2.045,2.045,0,0,1,36.82.07a2.148,2.148,0,0,1-1.175-.32,2.1,2.1,0,0,1-.78-.9A3.178,3.178,0,0,1,34.59-2.52a3.2,3.2,0,0,1,.28-1.375,2.187,2.187,0,0,1,.785-.925,2.082,2.082,0,0,1,1.165-.33,1.987,1.987,0,0,1,1.03.26,1.691,1.691,0,0,1,.67.73v-.87ZM36.98-.6a1.37,1.37,0,0,0,1.14-.505,2.263,2.263,0,0,0,.4-1.435,2.241,2.241,0,0,0-.4-1.43,1.375,1.375,0,0,0-1.14-.5,1.4,1.4,0,0,0-1.155.515A2.229,2.229,0,0,0,35.41-2.52a2.184,2.184,0,0,0,.41,1.42A1.415,1.415,0,0,0,36.98-.6Zm8.33-4.43L42.96.46a2.913,2.913,0,0,1-.93,1.26,3.392,3.392,0,0,1-1.38.55l-.17-.63a2.961,2.961,0,0,0,1.075-.425A1.929,1.929,0,0,0,42.16.4l.2-.45L40.23-5.03h.85l1.7,4.15L44.5-5.03Z" transform="translate(1019 2603)" fill="#585858"/>
    <path id="Path_3529" data-name="Path 3529" d="M-.05,1.07a4.334,4.334,0,0,0,.72.08A.822.822,0,0,0,1.385.865a1.731,1.731,0,0,0,.2-.975V-7.12h.82V-.1a2.38,2.38,0,0,1-.375,1.5A1.505,1.505,0,0,1,.8,1.86a5.667,5.667,0,0,1-.85-.08ZM8.5-5.03V0H7.7V-.91a1.594,1.594,0,0,1-.665.725A2.045,2.045,0,0,1,6,.07,2.148,2.148,0,0,1,4.825-.25a2.1,2.1,0,0,1-.78-.9A3.178,3.178,0,0,1,3.77-2.52a3.2,3.2,0,0,1,.28-1.375,2.187,2.187,0,0,1,.785-.925A2.081,2.081,0,0,1,6-5.15a1.987,1.987,0,0,1,1.03.26,1.691,1.691,0,0,1,.67.73v-.87ZM6.16-.6A1.37,1.37,0,0,0,7.3-1.105,2.263,2.263,0,0,0,7.7-2.54a2.241,2.241,0,0,0-.4-1.43,1.375,1.375,0,0,0-1.14-.5,1.4,1.4,0,0,0-1.155.515A2.229,2.229,0,0,0,4.59-2.52,2.184,2.184,0,0,0,5-1.1,1.415,1.415,0,0,0,6.16-.6Zm6.42-4.55q1.81,0,1.81,1.99V0h-.81V-3.12a1.55,1.55,0,0,0-.28-1.025,1.1,1.1,0,0,0-.88-.325,1.494,1.494,0,0,0-1.12.43,1.589,1.589,0,0,0-.42,1.16V0h-.81V-3.62a11.266,11.266,0,0,0-.08-1.41h.77l.08.9a1.667,1.667,0,0,1,.69-.755A2.065,2.065,0,0,1,12.58-5.15ZM23.16-.69V0H18.58V-.62l2.49-2.76a5,5,0,0,0,.73-1.01,1.962,1.962,0,0,0,.23-.9,1.173,1.173,0,0,0-.34-.9,1.375,1.375,0,0,0-.97-.315,3.18,3.18,0,0,0-2.02.82l-.31-.63a3.084,3.084,0,0,1,1.06-.64,3.649,3.649,0,0,1,1.29-.24,2.254,2.254,0,0,1,1.55.505,1.732,1.732,0,0,1,.57,1.365,2.654,2.654,0,0,1-.275,1.175A5.593,5.593,0,0,1,21.67-2.89L19.64-.69Zm4.67-2.97a2.062,2.062,0,0,1,1.085.655A1.692,1.692,0,0,1,29.3-1.89a1.706,1.706,0,0,1-.69,1.435A3,3,0,0,1,26.75.07a3,3,0,0,1-1.86-.525A1.706,1.706,0,0,1,24.2-1.89a1.685,1.685,0,0,1,.395-1.12,2.045,2.045,0,0,1,1.085-.65,1.877,1.877,0,0,1-.98-.625,1.616,1.616,0,0,1-.34-1.025,1.681,1.681,0,0,1,.3-.995,1.948,1.948,0,0,1,.845-.66A3.118,3.118,0,0,1,26.75-7.2a3.118,3.118,0,0,1,1.245.235,1.948,1.948,0,0,1,.845.66,1.681,1.681,0,0,1,.3.995A1.6,1.6,0,0,1,28.8-4.285,1.9,1.9,0,0,1,27.83-3.66ZM25.18-5.25a1.148,1.148,0,0,0,.425.925,2.108,2.108,0,0,0,1.145.435A2.108,2.108,0,0,0,27.9-4.325a1.148,1.148,0,0,0,.425-.925,1.138,1.138,0,0,0-.415-.93,1.773,1.773,0,0,0-1.155-.34,1.773,1.773,0,0,0-1.155.34A1.138,1.138,0,0,0,25.18-5.25ZM26.75-.61a2.108,2.108,0,0,0,1.29-.34,1.165,1.165,0,0,0,.45-.99,1.122,1.122,0,0,0-.475-.945A2.5,2.5,0,0,0,26.75-3.32a2.5,2.5,0,0,0-1.265.435,1.122,1.122,0,0,0-.475.945,1.165,1.165,0,0,0,.45.99A2.108,2.108,0,0,0,26.75-.61Z" transform="translate(1098 2603)" fill="#585858"/>
    <path id="Path_3530" data-name="Path 3530" d="M-.05,1.07a4.334,4.334,0,0,0,.72.08A.822.822,0,0,0,1.385.865a1.731,1.731,0,0,0,.2-.975V-7.12h.82V-.1a2.38,2.38,0,0,1-.375,1.5A1.505,1.505,0,0,1,.8,1.86a5.667,5.667,0,0,1-.85-.08ZM8.5-5.03V0H7.7V-.91a1.594,1.594,0,0,1-.665.725A2.045,2.045,0,0,1,6,.07,2.148,2.148,0,0,1,4.825-.25a2.1,2.1,0,0,1-.78-.9A3.178,3.178,0,0,1,3.77-2.52a3.2,3.2,0,0,1,.28-1.375,2.187,2.187,0,0,1,.785-.925A2.081,2.081,0,0,1,6-5.15a1.987,1.987,0,0,1,1.03.26,1.691,1.691,0,0,1,.67.73v-.87ZM6.16-.6A1.37,1.37,0,0,0,7.3-1.105,2.263,2.263,0,0,0,7.7-2.54a2.241,2.241,0,0,0-.4-1.43,1.375,1.375,0,0,0-1.14-.5,1.4,1.4,0,0,0-1.155.515A2.229,2.229,0,0,0,4.59-2.52,2.184,2.184,0,0,0,5-1.1,1.415,1.415,0,0,0,6.16-.6Zm6.42-4.55q1.81,0,1.81,1.99V0h-.81V-3.12a1.55,1.55,0,0,0-.28-1.025,1.1,1.1,0,0,0-.88-.325,1.494,1.494,0,0,0-1.12.43,1.589,1.589,0,0,0-.42,1.16V0h-.81V-3.62a11.266,11.266,0,0,0-.08-1.41h.77l.08.9a1.667,1.667,0,0,1,.69-.755A2.065,2.065,0,0,1,12.58-5.15ZM23.16-.69V0H18.58V-.62l2.49-2.76a5,5,0,0,0,.73-1.01,1.962,1.962,0,0,0,.23-.9,1.173,1.173,0,0,0-.34-.9,1.375,1.375,0,0,0-.97-.315,3.18,3.18,0,0,0-2.02.82l-.31-.63a3.084,3.084,0,0,1,1.06-.64,3.649,3.649,0,0,1,1.29-.24,2.254,2.254,0,0,1,1.55.505,1.732,1.732,0,0,1,.57,1.365,2.654,2.654,0,0,1-.275,1.175A5.593,5.593,0,0,1,21.67-2.89L19.64-.69ZM26.53-7.2a2.373,2.373,0,0,1,1.99.9,4.091,4.091,0,0,1,.7,2.56,4.745,4.745,0,0,1-.725,2.815A2.355,2.355,0,0,1,26.47.08a3.24,3.24,0,0,1-1.2-.23A3.239,3.239,0,0,1,24.24-.8l.32-.63a3.906,3.906,0,0,0,.97.625,2.364,2.364,0,0,0,.93.195,1.587,1.587,0,0,0,1.425-.82,4.392,4.392,0,0,0,.5-2.3v-.13a1.85,1.85,0,0,1-.75.885,2.2,2.2,0,0,1-1.19.325,2.281,2.281,0,0,1-1.15-.285,2,2,0,0,1-.78-.8,2.42,2.42,0,0,1-.28-1.175,2.349,2.349,0,0,1,.3-1.18,2.127,2.127,0,0,1,.815-.815A2.349,2.349,0,0,1,26.53-7.2Zm.05,3.86a1.542,1.542,0,0,0,1.14-.44,1.542,1.542,0,0,0,.44-1.14,1.555,1.555,0,0,0-.44-1.15,1.555,1.555,0,0,0-1.15-.44,1.46,1.46,0,0,0-1.1.435,1.593,1.593,0,0,0-.42,1.155,1.579,1.579,0,0,0,.42,1.145A1.472,1.472,0,0,0,26.58-3.34Z" transform="translate(1163 2603)" fill="#585858"/>
    <path id="Path_3531" data-name="Path 3531" d="M-.05,1.07a4.334,4.334,0,0,0,.72.08A.822.822,0,0,0,1.385.865a1.731,1.731,0,0,0,.2-.975V-7.12h.82V-.1a2.38,2.38,0,0,1-.375,1.5A1.505,1.505,0,0,1,.8,1.86a5.667,5.667,0,0,1-.85-.08ZM8.5-5.03V0H7.7V-.91a1.594,1.594,0,0,1-.665.725A2.045,2.045,0,0,1,6,.07,2.148,2.148,0,0,1,4.825-.25a2.1,2.1,0,0,1-.78-.9A3.178,3.178,0,0,1,3.77-2.52a3.2,3.2,0,0,1,.28-1.375,2.187,2.187,0,0,1,.785-.925A2.081,2.081,0,0,1,6-5.15a1.987,1.987,0,0,1,1.03.26,1.691,1.691,0,0,1,.67.73v-.87ZM6.16-.6A1.37,1.37,0,0,0,7.3-1.105,2.263,2.263,0,0,0,7.7-2.54a2.241,2.241,0,0,0-.4-1.43,1.375,1.375,0,0,0-1.14-.5,1.4,1.4,0,0,0-1.155.515A2.229,2.229,0,0,0,4.59-2.52,2.184,2.184,0,0,0,5-1.1,1.415,1.415,0,0,0,6.16-.6Zm6.42-4.55q1.81,0,1.81,1.99V0h-.81V-3.12a1.55,1.55,0,0,0-.28-1.025,1.1,1.1,0,0,0-.88-.325,1.494,1.494,0,0,0-1.12.43,1.589,1.589,0,0,0-.42,1.16V0h-.81V-3.62a11.266,11.266,0,0,0-.08-1.41h.77l.08.9a1.667,1.667,0,0,1,.69-.755A2.065,2.065,0,0,1,12.58-5.15Zm9.15,1.49a1.757,1.757,0,0,1,.96.62,1.8,1.8,0,0,1,.33,1.11,1.82,1.82,0,0,1-.63,1.465A2.556,2.556,0,0,1,20.68.07a3.861,3.861,0,0,1-1.325-.23A3.025,3.025,0,0,1,18.28-.81l.32-.63a3.2,3.2,0,0,0,2.06.82,1.725,1.725,0,0,0,1.155-.34,1.247,1.247,0,0,0,.395-1q0-1.31-1.64-1.31h-.82v-.69h.66a1.844,1.844,0,0,0,1.21-.35,1.228,1.228,0,0,0,.42-1,1.135,1.135,0,0,0-.345-.89,1.409,1.409,0,0,0-.975-.31,3.18,3.18,0,0,0-2.02.82l-.31-.63a3.074,3.074,0,0,1,1.055-.645A3.677,3.677,0,0,1,20.75-7.2a2.287,2.287,0,0,1,1.535.49,1.645,1.645,0,0,1,.575,1.32,1.914,1.914,0,0,1-.3,1.07A1.665,1.665,0,0,1,21.73-3.66ZM26.75.08A2.108,2.108,0,0,1,24.9-.845,4.8,4.8,0,0,1,24.26-3.56,4.8,4.8,0,0,1,24.9-6.275,2.108,2.108,0,0,1,26.75-7.2a2.108,2.108,0,0,1,1.855.925A4.777,4.777,0,0,1,29.24-3.57,4.824,4.824,0,0,1,28.6-.85,2.1,2.1,0,0,1,26.75.08Zm0-.69a1.343,1.343,0,0,0,1.255-.72,4.743,4.743,0,0,0,.4-2.24,4.7,4.7,0,0,0-.4-2.22,1.344,1.344,0,0,0-1.26-.71,1.346,1.346,0,0,0-1.255.71,4.651,4.651,0,0,0-.405,2.22A4.747,4.747,0,0,0,25.5-1.335,1.341,1.341,0,0,0,26.75-.61Z" transform="translate(1229 2603)" fill="#585858"/>
    <path id="Path_3532" data-name="Path 3532" d="M2.6-6.42H.12v-.7H5.91v.7H3.43V0H2.6ZM8.12.07A2.4,2.4,0,0,1,6.87-.25a2.146,2.146,0,0,1-.835-.91,3.049,3.049,0,0,1-.3-1.38,3.049,3.049,0,0,1,.3-1.38,2.146,2.146,0,0,1,.835-.91,2.4,2.4,0,0,1,1.25-.32,2.4,2.4,0,0,1,1.25.32,2.146,2.146,0,0,1,.835.91,3.049,3.049,0,0,1,.3,1.38,3.049,3.049,0,0,1-.3,1.38,2.146,2.146,0,0,1-.835.91A2.4,2.4,0,0,1,8.12.07Zm0-.67a1.393,1.393,0,0,0,1.15-.5,2.255,2.255,0,0,0,.4-1.445,2.206,2.206,0,0,0-.41-1.425,1.387,1.387,0,0,0-1.14-.5,1.4,1.4,0,0,0-1.15.5A2.206,2.206,0,0,0,6.56-2.54a2.235,2.235,0,0,0,.4,1.445A1.407,1.407,0,0,0,8.12-.6Zm8.07-6.76V0h-.8V-.91a1.594,1.594,0,0,1-.665.725A2.045,2.045,0,0,1,13.69.07a2.081,2.081,0,0,1-1.165-.33,2.187,2.187,0,0,1-.785-.925,3.2,3.2,0,0,1-.28-1.375,3.178,3.178,0,0,1,.275-1.365,2.087,2.087,0,0,1,.785-.9,2.155,2.155,0,0,1,1.17-.32,2.018,2.018,0,0,1,1.03.255,1.612,1.612,0,0,1,.66.715V-7.36ZM13.85-.6a1.37,1.37,0,0,0,1.14-.505,2.263,2.263,0,0,0,.4-1.435,2.245,2.245,0,0,0-.4-1.425,1.37,1.37,0,0,0-1.14-.5,1.419,1.419,0,0,0-1.155.5,2.149,2.149,0,0,0-.415,1.41,2.247,2.247,0,0,0,.415,1.445A1.4,1.4,0,0,0,13.85-.6Zm8.34-4.43V0h-.8V-.91a1.594,1.594,0,0,1-.665.725A2.045,2.045,0,0,1,19.69.07a2.148,2.148,0,0,1-1.175-.32,2.1,2.1,0,0,1-.78-.9A3.178,3.178,0,0,1,17.46-2.52a3.2,3.2,0,0,1,.28-1.375,2.187,2.187,0,0,1,.785-.925,2.081,2.081,0,0,1,1.165-.33,1.987,1.987,0,0,1,1.03.26,1.691,1.691,0,0,1,.67.73v-.87ZM19.85-.6a1.37,1.37,0,0,0,1.14-.505,2.263,2.263,0,0,0,.4-1.435,2.241,2.241,0,0,0-.4-1.43,1.375,1.375,0,0,0-1.14-.5,1.4,1.4,0,0,0-1.155.515A2.229,2.229,0,0,0,18.28-2.52a2.184,2.184,0,0,0,.41,1.42A1.415,1.415,0,0,0,19.85-.6Zm8.33-4.43L25.83.46a2.913,2.913,0,0,1-.93,1.26,3.392,3.392,0,0,1-1.38.55l-.17-.63a2.961,2.961,0,0,0,1.075-.425A1.929,1.929,0,0,0,25.03.4l.2-.45L23.1-5.03h.85l1.7,4.15,1.72-4.15Z" transform="translate(954 2603)" fill="#585858"/>
    <path id="Path_3533" data-name="Path 3533" d="M5.25-.69V0H1.28V-.69H2.85V-6.1l-1.46.93v-.79L3.21-7.12h.47V-.69ZM9,.08A2.108,2.108,0,0,1,7.145-.845,4.8,4.8,0,0,1,6.51-3.56a4.8,4.8,0,0,1,.635-2.715A2.108,2.108,0,0,1,9-7.2a2.108,2.108,0,0,1,1.855.925A4.777,4.777,0,0,1,11.49-3.57a4.824,4.824,0,0,1-.635,2.72A2.1,2.1,0,0,1,9,.08ZM9-.61a1.343,1.343,0,0,0,1.255-.72,4.743,4.743,0,0,0,.4-2.24,4.7,4.7,0,0,0-.4-2.22A1.344,1.344,0,0,0,9-6.5a1.346,1.346,0,0,0-1.255.71,4.651,4.651,0,0,0-.4,2.22,4.747,4.747,0,0,0,.4,2.235A1.341,1.341,0,0,0,9-.61Zm6,.69a2.108,2.108,0,0,1-1.855-.925A4.8,4.8,0,0,1,12.51-3.56a4.8,4.8,0,0,1,.635-2.715A2.108,2.108,0,0,1,15-7.2a2.108,2.108,0,0,1,1.855.925A4.777,4.777,0,0,1,17.49-3.57a4.824,4.824,0,0,1-.635,2.72A2.1,2.1,0,0,1,15,.08Zm0-.69a1.343,1.343,0,0,0,1.255-.72,4.743,4.743,0,0,0,.4-2.24,4.7,4.7,0,0,0-.4-2.22A1.344,1.344,0,0,0,15-6.5a1.346,1.346,0,0,0-1.255.71,4.651,4.651,0,0,0-.4,2.22,4.747,4.747,0,0,0,.4,2.235A1.341,1.341,0,0,0,15-.61Z" transform="translate(937 2582)" fill="#585858"/>
    <path id="Path_3534" data-name="Path 3534" d="M5.41-.69V0H.83V-.62L3.32-3.38a5,5,0,0,0,.73-1.01,1.962,1.962,0,0,0,.23-.9,1.173,1.173,0,0,0-.34-.9,1.375,1.375,0,0,0-.97-.315,3.18,3.18,0,0,0-2.02.82L.64-6.32A3.084,3.084,0,0,1,1.7-6.96,3.649,3.649,0,0,1,2.99-7.2a2.254,2.254,0,0,1,1.55.505A1.732,1.732,0,0,1,5.11-5.33a2.654,2.654,0,0,1-.275,1.175A5.593,5.593,0,0,1,3.92-2.89L1.89-.69ZM9,.08A2.108,2.108,0,0,1,7.145-.845,4.8,4.8,0,0,1,6.51-3.56a4.8,4.8,0,0,1,.635-2.715A2.108,2.108,0,0,1,9-7.2a2.108,2.108,0,0,1,1.855.925A4.777,4.777,0,0,1,11.49-3.57a4.824,4.824,0,0,1-.635,2.72A2.1,2.1,0,0,1,9,.08ZM9-.61a1.343,1.343,0,0,0,1.255-.72,4.743,4.743,0,0,0,.4-2.24,4.7,4.7,0,0,0-.4-2.22A1.344,1.344,0,0,0,9-6.5a1.346,1.346,0,0,0-1.255.71,4.651,4.651,0,0,0-.4,2.22,4.747,4.747,0,0,0,.4,2.235A1.341,1.341,0,0,0,9-.61Zm6,.69a2.108,2.108,0,0,1-1.855-.925A4.8,4.8,0,0,1,12.51-3.56a4.8,4.8,0,0,1,.635-2.715A2.108,2.108,0,0,1,15-7.2a2.108,2.108,0,0,1,1.855.925A4.777,4.777,0,0,1,17.49-3.57a4.824,4.824,0,0,1-.635,2.72A2.1,2.1,0,0,1,15,.08Zm0-.69a1.343,1.343,0,0,0,1.255-.72,4.743,4.743,0,0,0,.4-2.24,4.7,4.7,0,0,0-.4-2.22A1.344,1.344,0,0,0,15-6.5a1.346,1.346,0,0,0-1.255.71,4.651,4.651,0,0,0-.4,2.22,4.747,4.747,0,0,0,.4,2.235A1.341,1.341,0,0,0,15-.61Z" transform="translate(937 2439)" fill="#585858"/>
    <path id="Path_3535" data-name="Path 3535" d="M5.25-.69V0H1.28V-.69H2.85V-6.1l-1.46.93v-.79L3.21-7.12h.47V-.69ZM9.3-4.47a2.35,2.35,0,0,1,1.175.285,1.935,1.935,0,0,1,.775.8,2.485,2.485,0,0,1,.27,1.18,2.369,2.369,0,0,1-.3,1.19,2.018,2.018,0,0,1-.84.8A2.714,2.714,0,0,1,9.11.07,3.636,3.636,0,0,1,7.83-.165,3.066,3.066,0,0,1,6.77-.81l.31-.63a3.164,3.164,0,0,0,2.03.82,1.588,1.588,0,0,0,1.175-.425A1.561,1.561,0,0,0,10.71-2.2a1.579,1.579,0,0,0-.42-1.145A1.485,1.485,0,0,0,9.17-3.78a1.923,1.923,0,0,0-1.63.83H6.97V-7.12h4.27v.68H7.79V-3.9A2.084,2.084,0,0,1,9.3-4.47ZM15,.08a2.108,2.108,0,0,1-1.855-.925A4.8,4.8,0,0,1,12.51-3.56a4.8,4.8,0,0,1,.635-2.715A2.108,2.108,0,0,1,15-7.2a2.108,2.108,0,0,1,1.855.925A4.777,4.777,0,0,1,17.49-3.57a4.824,4.824,0,0,1-.635,2.72A2.1,2.1,0,0,1,15,.08Zm0-.69a1.343,1.343,0,0,0,1.255-.72,4.743,4.743,0,0,0,.4-2.24,4.7,4.7,0,0,0-.4-2.22A1.344,1.344,0,0,0,15-6.5a1.346,1.346,0,0,0-1.255.71,4.651,4.651,0,0,0-.4,2.22,4.747,4.747,0,0,0,.4,2.235A1.341,1.341,0,0,0,15-.61Z" transform="translate(937 2498)" fill="#585858"/>
    <g id="Ellipse_304" data-name="Ellipse 304" transform="translate(1016.18 2502.689)" fill="#fff" stroke="#4dc029" stroke-width="1">
      <ellipse cx="4.391" cy="4.5" rx="4.391" ry="4.5" stroke="none"/>
      <ellipse cx="4.391" cy="4.5" rx="3.891" ry="4" fill="none"/>
    </g>
    <g id="Ellipse_305" data-name="Ellipse 305" transform="translate(1261 2546)" fill="#fff" stroke="#4dc029" stroke-width="1">
      <circle cx="4" cy="4" r="4" stroke="none"/>
      <circle cx="4" cy="4" r="3.5" fill="none"/>
    </g>
    <g id="Group_40667" data-name="Group 40667" transform="translate(965.801 2436.9)" opacity="0.242">
      <path id="Path_1444" data-name="Path 1444" d="M-.169,0l364.2-.1" transform="translate(0.169 0.098)" fill="none" stroke="#c1c1c1" stroke-width="1" stroke-dasharray="7"/>
    </g>
    <g id="Group_40669" data-name="Group 40669" transform="translate(965.801 2494.5)" opacity="0.242">
      <path id="Path_1444-2" data-name="Path 1444" d="M-.169,0l364.2-.1" transform="translate(0.169 0.098)" fill="none" stroke="#c1c1c1" stroke-width="1" stroke-dasharray="7"/>
    </g>
    <path id="Path_1611" data-name="Path 1611" d="M35.022,1.045,398.961-.1" transform="translate(931.668 2580.598)" fill="none" stroke="#c1c1c1" stroke-width="1"/>
    <path id="Path_1612" data-name="Path 1612" d="M35.022,1.045,398.961-.1" transform="translate(931.668 2531.598)" fill="#0da304" stroke="#0da304" stroke-linecap="round" stroke-width="1" stroke-dasharray="8" opacity="0.358"/>
    <g transform="matrix(1, 0, 0, 1, 937.64, 2431.8)" filter="url(#Ellipse_316)">
      <g id="Ellipse_316-2" data-name="Ellipse 316" transform="translate(77.74 70.1)" fill="#0da304" stroke="#fff" stroke-width="2">
        <circle cx="5.5" cy="5.5" r="5.5" stroke="none"/>
        <circle cx="5.5" cy="5.5" r="4.5" fill="none"/>
      </g>
    </g>
    <g transform="matrix(1, 0, 0, 1, 937.64, 2431.8)" filter="url(#Ellipse_317)">
      <g id="Ellipse_317-2" data-name="Ellipse 317" transform="translate(319.98 112.1)" fill="#db8282" stroke="#fff" stroke-width="2">
        <circle cx="5.5" cy="5.5" r="5.5" stroke="none"/>
        <circle cx="5.5" cy="5.5" r="4.5" fill="none"/>
      </g>
    </g>
    <g id="Group_40662" data-name="Group 40662" transform="translate(982.283 2476.994)">
      <rect id="Rectangle_1243" data-name="Rectangle 1243" width="80.887" height="20.485" rx="4" transform="translate(0 1.299)" fill="rgba(8,38,6,0.97)"/>
      <path id="Path_3537" data-name="Path 3537" d="M5.5-5.7V0H4.672V-2.552H1.48V0H.664V-5.7H1.48v2.464H4.672V-5.7ZM6.752-4.032h.8V0h-.8Zm.864-1.76v.848H6.68v-.848Zm4.84,1.76v3.96a1.846,1.846,0,0,1-.484,1.388,1.989,1.989,0,0,1-1.436.468,3.142,3.142,0,0,1-1.608-.4L9.064.752a3.575,3.575,0,0,0,.724.3,2.772,2.772,0,0,0,.74.1A1.008,1.008,0,0,0,11.656-.008V-.88a1.361,1.361,0,0,1-.536.556,1.6,1.6,0,0,1-.816.2,1.787,1.787,0,0,1-.94-.248,1.674,1.674,0,0,1-.64-.7A2.313,2.313,0,0,1,8.5-2.12a2.313,2.313,0,0,1,.228-1.048,1.7,1.7,0,0,1,.64-.708,1.765,1.765,0,0,1,.94-.252,1.65,1.65,0,0,1,.816.2,1.3,1.3,0,0,1,.536.556v-.656ZM10.488-.768a1.073,1.073,0,0,0,.856-.36,1.465,1.465,0,0,0,.312-.992,1.493,1.493,0,0,0-.308-1,1.065,1.065,0,0,0-.86-.364,1.08,1.08,0,0,0-.86.364,1.468,1.468,0,0,0-.316,1,1.456,1.456,0,0,0,.316.988A1.08,1.08,0,0,0,10.488-.768Zm5.3-3.36q1.448,0,1.448,1.616V0h-.808V-2.464a1.176,1.176,0,0,0-.2-.768.811.811,0,0,0-.652-.24,1.086,1.086,0,0,0-.82.32,1.182,1.182,0,0,0-.308.856V0h-.8V-5.888h.8v2.48a1.336,1.336,0,0,1,.552-.536A1.684,1.684,0,0,1,15.784-4.128ZM20.5-2.48h2.328v.656H20.5Zm9.328,1.8V0H26.5V-.68h1.248V-4.712l-1.16.72v-.76L28.1-5.7h.48V-.68ZM33-3.608a1.88,1.88,0,0,1,.94.228,1.568,1.568,0,0,1,.624.64,1.982,1.982,0,0,1,.22.948,1.878,1.878,0,0,1-.244.968,1.665,1.665,0,0,1-.7.648,2.317,2.317,0,0,1-1.064.232,3.054,3.054,0,0,1-1.04-.184,2.374,2.374,0,0,1-.848-.5l.288-.608a2.585,2.585,0,0,0,1.608.624,1.213,1.213,0,0,0,.884-.308,1.135,1.135,0,0,0,.316-.852,1.144,1.144,0,0,0-.316-.84,1.133,1.133,0,0,0-.844-.32,1.5,1.5,0,0,0-1.232.584h-.536V-5.7h3.488v.664H31.872v1.808A1.691,1.691,0,0,1,33-3.608ZM37.528.064A1.729,1.729,0,0,1,36.016-.68a3.772,3.772,0,0,1-.52-2.168,3.772,3.772,0,0,1,.52-2.168,1.729,1.729,0,0,1,1.512-.744,1.732,1.732,0,0,1,1.512.74,3.752,3.752,0,0,1,.52,2.164A3.789,3.789,0,0,1,39.04-.68,1.729,1.729,0,0,1,37.528.064Zm0-.664a.963.963,0,0,0,.908-.548,3.793,3.793,0,0,0,.292-1.708,3.757,3.757,0,0,0-.288-1.7.964.964,0,0,0-.912-.536.965.965,0,0,0-.908.54,3.716,3.716,0,0,0-.292,1.692,3.793,3.793,0,0,0,.292,1.708A.963.963,0,0,0,37.528-.6Zm3.84-.36V0h-.96V-.96ZM44.52-3.608a1.88,1.88,0,0,1,.94.228,1.568,1.568,0,0,1,.624.64,1.982,1.982,0,0,1,.22.948,1.878,1.878,0,0,1-.244.968,1.665,1.665,0,0,1-.7.648A2.317,2.317,0,0,1,44.3.056a3.054,3.054,0,0,1-1.04-.184,2.374,2.374,0,0,1-.848-.5L42.7-1.24A2.585,2.585,0,0,0,44.3-.616a1.213,1.213,0,0,0,.884-.308,1.135,1.135,0,0,0,.316-.852,1.144,1.144,0,0,0-.316-.84,1.133,1.133,0,0,0-.844-.32,1.5,1.5,0,0,0-1.232.584h-.536V-5.7h3.488v.664H43.392v1.808A1.691,1.691,0,0,1,44.52-3.608Zm5.368.68a1.4,1.4,0,0,1,.76.5,1.439,1.439,0,0,1,.264.888,1.432,1.432,0,0,1-.524,1.172,2.179,2.179,0,0,1-1.42.428,3.267,3.267,0,0,1-1.084-.18,2.345,2.345,0,0,1-.86-.508l.3-.608a2.538,2.538,0,0,0,1.624.624q1.168,0,1.168-.984a.85.85,0,0,0-.3-.716,1.489,1.489,0,0,0-.92-.236h-.7v-.672h.568a1.426,1.426,0,0,0,.9-.248.865.865,0,0,0,.312-.72.843.843,0,0,0-.26-.664,1.062,1.062,0,0,0-.732-.232,2.535,2.535,0,0,0-1.584.624l-.3-.608a2.369,2.369,0,0,1,.852-.5,3.156,3.156,0,0,1,1.068-.184,1.932,1.932,0,0,1,1.276.4A1.317,1.317,0,0,1,50.776-4.3a1.531,1.531,0,0,1-.232.848A1.3,1.3,0,0,1,49.888-2.928Z" transform="translate(19.975 14)" fill="#fff"/>
      <path id="Path_1610" data-name="Path 1610" d="M3.7,8.126l.673-.739-2.548-2.8H7.4V3.535H1.827L4.374.739,3.7,0,0,4.063Z" transform="translate(18.126 7.299) rotate(90)" fill="#50bc49"/>
    </g>
    <g id="Group_40662-2" data-name="Group 40662" transform="translate(1232.838 2517.994)">
      <rect id="Rectangle_1243-2" data-name="Rectangle 1243" width="79.095" height="19.402" rx="4" transform="translate(0 1.299)" fill="rgba(8,38,6,0.97)"/>
      <path id="Path_3538" data-name="Path 3538" d="M.664-5.7h.824V-.688H4.256V0H.664ZM6.728.056A2.059,2.059,0,0,1,5.688-.2,1.737,1.737,0,0,1,5-.928a2.373,2.373,0,0,1-.244-1.1A2.4,2.4,0,0,1,5-3.14a1.732,1.732,0,0,1,.692-.732,2.059,2.059,0,0,1,1.04-.256,2.043,2.043,0,0,1,1.032.256,1.732,1.732,0,0,1,.692.732A2.4,2.4,0,0,1,8.7-2.032a2.373,2.373,0,0,1-.244,1.1A1.737,1.737,0,0,1,7.76-.2,2.043,2.043,0,0,1,6.728.056ZM6.72-.584a1.034,1.034,0,0,0,.856-.368,1.693,1.693,0,0,0,.3-1.08,1.682,1.682,0,0,0-.3-1.072,1.018,1.018,0,0,0-.844-.376,1.038,1.038,0,0,0-.856.376,1.666,1.666,0,0,0-.3,1.072,1.676,1.676,0,0,0,.3,1.08A1.037,1.037,0,0,0,6.72-.584Zm9.12-3.448L14.3,0h-.736l-1.08-2.92L11.416,0H10.68L9.144-4.032h.84l1.1,3.08,1.112-3.08h.64l1.112,3.08,1.1-3.08ZM18.7-2.48h2.328v.656H18.7Zm9.328,1.8V0H24.7V-.68h1.248V-4.712l-1.16.72v-.76L26.3-5.7h.48V-.68Zm4.864,0V0H29.16V-.616l1.96-2.152a3.6,3.6,0,0,0,.548-.756A1.487,1.487,0,0,0,31.84-4.2a.852.852,0,0,0-.248-.66,1.028,1.028,0,0,0-.72-.228,2.558,2.558,0,0,0-1.584.624l-.3-.608a2.478,2.478,0,0,1,.856-.5A3.063,3.063,0,0,1,30.9-5.76a1.919,1.919,0,0,1,1.292.408,1.379,1.379,0,0,1,.476,1.1,2.121,2.121,0,0,1-.216.94,4.275,4.275,0,0,1-.72.988L30.208-.68Zm2.84.744A1.729,1.729,0,0,1,34.224-.68a3.772,3.772,0,0,1-.52-2.168,3.772,3.772,0,0,1,.52-2.168,1.729,1.729,0,0,1,1.512-.744,1.732,1.732,0,0,1,1.512.74,3.752,3.752,0,0,1,.52,2.164,3.789,3.789,0,0,1-.52,2.176A1.729,1.729,0,0,1,35.736.064Zm0-.664a.963.963,0,0,0,.908-.548,3.793,3.793,0,0,0,.292-1.708,3.757,3.757,0,0,0-.288-1.7.964.964,0,0,0-.912-.536.965.965,0,0,0-.908.54,3.716,3.716,0,0,0-.292,1.692,3.793,3.793,0,0,0,.292,1.708A.963.963,0,0,0,35.736-.6Zm3.84-.36V0h-.96V-.96ZM42.456.064A1.729,1.729,0,0,1,40.944-.68a3.772,3.772,0,0,1-.52-2.168,3.772,3.772,0,0,1,.52-2.168,1.729,1.729,0,0,1,1.512-.744,1.732,1.732,0,0,1,1.512.74,3.752,3.752,0,0,1,.52,2.164,3.789,3.789,0,0,1-.52,2.176A1.729,1.729,0,0,1,42.456.064Zm0-.664a.963.963,0,0,0,.908-.548,3.793,3.793,0,0,0,.292-1.708,3.757,3.757,0,0,0-.288-1.7.964.964,0,0,0-.912-.536.965.965,0,0,0-.908.54,3.716,3.716,0,0,0-.292,1.692,3.793,3.793,0,0,0,.292,1.708A.963.963,0,0,0,42.456-.6ZM48.1-2.928a1.4,1.4,0,0,1,.76.5,1.439,1.439,0,0,1,.264.888A1.432,1.432,0,0,1,48.6-.372a2.179,2.179,0,0,1-1.42.428,3.267,3.267,0,0,1-1.084-.18,2.345,2.345,0,0,1-.86-.508l.3-.608a2.538,2.538,0,0,0,1.624.624q1.168,0,1.168-.984a.85.85,0,0,0-.3-.716,1.489,1.489,0,0,0-.92-.236h-.7v-.672h.568a1.426,1.426,0,0,0,.9-.248.865.865,0,0,0,.312-.72.843.843,0,0,0-.26-.664,1.062,1.062,0,0,0-.732-.232,2.535,2.535,0,0,0-1.584.624l-.3-.608a2.369,2.369,0,0,1,.852-.5,3.156,3.156,0,0,1,1.068-.184,1.932,1.932,0,0,1,1.276.4A1.317,1.317,0,0,1,48.984-4.3a1.531,1.531,0,0,1-.232.848A1.3,1.3,0,0,1,48.1-2.928Z" transform="translate(19.975 14)" fill="#fff"/>
      <path id="Path_1610-2" data-name="Path 1610" d="M3.7,8.126l.673-.739-2.548-2.8H7.4V3.535H1.827L4.374.739,3.7,0,0,4.063Z" transform="translate(10 14.701) rotate(-90)" fill="#db8282"/>
    </g>
    <g id="Group_40303" data-name="Group 40303" transform="translate(1112.518 2516)">
      <path id="Path_3536" data-name="Path 3536" d="M5.67-1.55H4.59V0H3.77V-1.55H.49v-.62L3.92-7.12h.67v4.89H5.67Zm-1.9-.68v-3.5L1.34-2.23ZM11.41-.69V0H6.83V-.62L9.32-3.38a5,5,0,0,0,.73-1.01,1.962,1.962,0,0,0,.23-.9,1.173,1.173,0,0,0-.34-.9,1.375,1.375,0,0,0-.97-.315,3.18,3.18,0,0,0-2.02.82l-.31-.63A3.084,3.084,0,0,1,7.7-6.96,3.649,3.649,0,0,1,8.99-7.2a2.254,2.254,0,0,1,1.55.505,1.732,1.732,0,0,1,.57,1.365,2.654,2.654,0,0,1-.275,1.175A5.593,5.593,0,0,1,9.92-2.89L7.89-.69Zm2.26-.34V0H12.64V-1.03Zm3.94-3.44a2.35,2.35,0,0,1,1.175.285,1.935,1.935,0,0,1,.775.8,2.485,2.485,0,0,1,.27,1.18,2.369,2.369,0,0,1-.3,1.19,2.018,2.018,0,0,1-.84.8A2.714,2.714,0,0,1,17.42.07a3.636,3.636,0,0,1-1.28-.235A3.066,3.066,0,0,1,15.08-.81l.31-.63a3.164,3.164,0,0,0,2.03.82A1.588,1.588,0,0,0,18.6-1.045,1.561,1.561,0,0,0,19.02-2.2a1.579,1.579,0,0,0-.42-1.145,1.485,1.485,0,0,0-1.12-.435,1.923,1.923,0,0,0-1.63.83h-.57V-7.12h4.27v.68H16.1V-3.9A2.084,2.084,0,0,1,17.61-4.47Zm8.05-2.65v.61L22.32,0h-.88l3.32-6.43h-3.8v-.69Z" transform="translate(11.51 7)" fill="#585858"/>
      <line id="Line_64" data-name="Line 64" x2="6" transform="translate(0 4.5)" fill="none" stroke="#80ce7b" stroke-width="1"/>
    </g>
  </g>
</svg>
