<svg xmlns="http://www.w3.org/2000/svg" xmlns:xlink="http://www.w3.org/1999/xlink" width="397.51" height="174.47" viewBox="0 0 397.51 174.47">
  <defs>
    <linearGradient id="linear-gradient" x1="0.5" x2="0.5" y2="1" gradientUnits="objectBoundingBox">
      <stop offset="0" stop-color="#0ca304"/>
      <stop offset="1" stop-color="#fff" stop-opacity="0"/>
    </linearGradient>
    <filter id="Ellipse_315" x="139.502" y="60.102" width="29" height="29" filterUnits="userSpaceOnUse">
      <feOffset dy="3" input="SourceAlpha"/>
      <feGaussianBlur stdDeviation="3" result="blur"/>
      <feFlood flood-opacity="0.161"/>
      <feComposite operator="in" in2="blur"/>
      <feComposite in="SourceGraphic"/>
    </filter>
  </defs>
  <g id="Group_41369" data-name="Group 41369" transform="translate(-36.49 -2430.8)">
    <g id="Group_40654" data-name="Group 40654" transform="translate(76.779 2585.4)" opacity="0.504">
      <path id="Path_1444" data-name="Path 1444" d="M-.169,0l354.13-.1" transform="translate(0.169 0.098)" fill="none" stroke="#c1c1c1" stroke-width="1"/>
    </g>
    <g id="Group_40658" data-name="Group 40658" transform="translate(76.779 2510.5)">
      <path id="Path_1444-2" data-name="Path 1444" d="M-.169,0l354.13-.1" transform="translate(0.169 0.098)" fill="none" stroke="#efefef" stroke-width="1" stroke-dasharray="7"/>
    </g>
    <g id="Group_40659" data-name="Group 40659" transform="translate(76.779 2434.4)" opacity="0.242">
      <path id="Path_1444-3" data-name="Path 1444" d="M-.169,0l354.13-.1" transform="translate(0.169 0.098)" fill="none" stroke="#c1c1c1" stroke-width="1" stroke-dasharray="7"/>
    </g>
    <path id="Path_3510" data-name="Path 3510" d="M3.44-2.88V0H2.62V-2.89L-.18-7.12H.78l2.26,3.5L5.3-7.12h.94Zm6.85.34H6.6a2.159,2.159,0,0,0,.445,1.45A1.6,1.6,0,0,0,8.31-.6a2.542,2.542,0,0,0,1.62-.59l.27.59a2.344,2.344,0,0,1-.845.49A3.176,3.176,0,0,1,8.3.07a2.449,2.449,0,0,1-1.85-.7,2.63,2.63,0,0,1-.67-1.9,2.991,2.991,0,0,1,.3-1.365,2.238,2.238,0,0,1,.84-.925,2.311,2.311,0,0,1,1.23-.33,1.972,1.972,0,0,1,1.57.655,2.658,2.658,0,0,1,.57,1.8ZM8.16-4.52a1.417,1.417,0,0,0-1.025.38A1.836,1.836,0,0,0,6.63-3.07H9.56a1.721,1.721,0,0,0-.415-1.08A1.3,1.3,0,0,0,8.16-4.52ZM13.22.07a2.939,2.939,0,0,1-2.01-.65l.27-.6a2.79,2.79,0,0,0,.83.46,2.962,2.962,0,0,0,.94.14,1.575,1.575,0,0,0,.865-.195.636.636,0,0,0,.3-.565.614.614,0,0,0-.2-.48,1.459,1.459,0,0,0-.66-.28l-.85-.2a1.875,1.875,0,0,1-.975-.5,1.2,1.2,0,0,1-.345-.86,1.3,1.3,0,0,1,.53-1.075,2.207,2.207,0,0,1,1.4-.415,2.917,2.917,0,0,1,1,.17,2.117,2.117,0,0,1,.79.49l-.27.59a2.338,2.338,0,0,0-1.52-.59,1.451,1.451,0,0,0-.835.2.66.66,0,0,0-.3.575.652.652,0,0,0,.185.49,1.286,1.286,0,0,0,.6.28l.85.21a2.136,2.136,0,0,1,1.04.5,1.174,1.174,0,0,1,.34.875,1.228,1.228,0,0,1-.53,1.04A2.381,2.381,0,0,1,13.22.07Zm4.29-4.46v2.75a1.077,1.077,0,0,0,.23.785.891.891,0,0,0,.65.225,1.639,1.639,0,0,0,.54-.09v.69a2.275,2.275,0,0,1-.7.1A1.521,1.521,0,0,1,17.1-.335,1.62,1.62,0,0,1,16.7-1.53V-4.39h-.98v-.64h.98V-6.32l.81-.29v1.58h1.44v.64Zm6.63,1.85H20.45A2.159,2.159,0,0,0,20.9-1.09,1.6,1.6,0,0,0,22.16-.6a2.542,2.542,0,0,0,1.62-.59l.27.59a2.344,2.344,0,0,1-.845.49A3.176,3.176,0,0,1,22.15.07a2.449,2.449,0,0,1-1.85-.7,2.63,2.63,0,0,1-.67-1.9,2.991,2.991,0,0,1,.3-1.365,2.238,2.238,0,0,1,.84-.925A2.311,2.311,0,0,1,22-5.15a1.972,1.972,0,0,1,1.57.655,2.658,2.658,0,0,1,.57,1.8ZM22.01-4.52a1.417,1.417,0,0,0-1.025.38,1.836,1.836,0,0,0-.505,1.07h2.93a1.721,1.721,0,0,0-.415-1.08A1.3,1.3,0,0,0,22.01-4.52Zm5.7-.63a1.67,1.67,0,0,1,.46.06l-.02.74a1.611,1.611,0,0,0-.53-.08,1.291,1.291,0,0,0-1.085.455A1.742,1.742,0,0,0,26.18-2.87V0h-.81V-3.62a11.266,11.266,0,0,0-.08-1.41h.77l.08.93a1.53,1.53,0,0,1,.61-.78A1.736,1.736,0,0,1,27.71-5.15Zm5.61-2.21V0h-.8V-.91a1.594,1.594,0,0,1-.665.725A2.045,2.045,0,0,1,30.82.07a2.081,2.081,0,0,1-1.165-.33,2.187,2.187,0,0,1-.785-.925,3.2,3.2,0,0,1-.28-1.375,3.178,3.178,0,0,1,.275-1.365,2.087,2.087,0,0,1,.785-.9,2.155,2.155,0,0,1,1.17-.32,2.018,2.018,0,0,1,1.03.255,1.612,1.612,0,0,1,.66.715V-7.36ZM30.98-.6a1.37,1.37,0,0,0,1.14-.505,2.263,2.263,0,0,0,.4-1.435,2.245,2.245,0,0,0-.4-1.425,1.37,1.37,0,0,0-1.14-.5,1.419,1.419,0,0,0-1.155.5,2.149,2.149,0,0,0-.415,1.41,2.247,2.247,0,0,0,.415,1.445A1.4,1.4,0,0,0,30.98-.6Zm8.34-4.43V0h-.8V-.91a1.594,1.594,0,0,1-.665.725A2.045,2.045,0,0,1,36.82.07a2.148,2.148,0,0,1-1.175-.32,2.1,2.1,0,0,1-.78-.9A3.178,3.178,0,0,1,34.59-2.52a3.2,3.2,0,0,1,.28-1.375,2.187,2.187,0,0,1,.785-.925,2.082,2.082,0,0,1,1.165-.33,1.987,1.987,0,0,1,1.03.26,1.691,1.691,0,0,1,.67.73v-.87ZM36.98-.6a1.37,1.37,0,0,0,1.14-.505,2.263,2.263,0,0,0,.4-1.435,2.241,2.241,0,0,0-.4-1.43,1.375,1.375,0,0,0-1.14-.5,1.4,1.4,0,0,0-1.155.515A2.229,2.229,0,0,0,35.41-2.52a2.184,2.184,0,0,0,.41,1.42A1.415,1.415,0,0,0,36.98-.6Zm8.33-4.43L42.96.46a2.913,2.913,0,0,1-.93,1.26,3.392,3.392,0,0,1-1.38.55l-.17-.63a2.961,2.961,0,0,0,1.075-.425A1.929,1.929,0,0,0,42.16.4l.2-.45L40.23-5.03h.85l1.7,4.15L44.5-5.03Z" transform="translate(118.807 2603)" fill="#585858"/>
    <path id="Path_3511" data-name="Path 3511" d="M-.05,1.07a4.334,4.334,0,0,0,.72.08A.822.822,0,0,0,1.385.865a1.731,1.731,0,0,0,.2-.975V-7.12h.82V-.1a2.38,2.38,0,0,1-.375,1.5A1.505,1.505,0,0,1,.8,1.86a5.667,5.667,0,0,1-.85-.08ZM8.5-5.03V0H7.7V-.91a1.594,1.594,0,0,1-.665.725A2.045,2.045,0,0,1,6,.07,2.148,2.148,0,0,1,4.825-.25a2.1,2.1,0,0,1-.78-.9A3.178,3.178,0,0,1,3.77-2.52a3.2,3.2,0,0,1,.28-1.375,2.187,2.187,0,0,1,.785-.925A2.081,2.081,0,0,1,6-5.15a1.987,1.987,0,0,1,1.03.26,1.691,1.691,0,0,1,.67.73v-.87ZM6.16-.6A1.37,1.37,0,0,0,7.3-1.105,2.263,2.263,0,0,0,7.7-2.54a2.241,2.241,0,0,0-.4-1.43,1.375,1.375,0,0,0-1.14-.5,1.4,1.4,0,0,0-1.155.515A2.229,2.229,0,0,0,4.59-2.52,2.184,2.184,0,0,0,5-1.1,1.415,1.415,0,0,0,6.16-.6Zm6.42-4.55q1.81,0,1.81,1.99V0h-.81V-3.12a1.55,1.55,0,0,0-.28-1.025,1.1,1.1,0,0,0-.88-.325,1.494,1.494,0,0,0-1.12.43,1.589,1.589,0,0,0-.42,1.16V0h-.81V-3.62a11.266,11.266,0,0,0-.08-1.41h.77l.08.9a1.667,1.667,0,0,1,.69-.755A2.065,2.065,0,0,1,12.58-5.15ZM23.16-.69V0H18.58V-.62l2.49-2.76a5,5,0,0,0,.73-1.01,1.962,1.962,0,0,0,.23-.9,1.173,1.173,0,0,0-.34-.9,1.375,1.375,0,0,0-.97-.315,3.18,3.18,0,0,0-2.02.82l-.31-.63a3.084,3.084,0,0,1,1.06-.64,3.649,3.649,0,0,1,1.29-.24,2.254,2.254,0,0,1,1.55.505,1.732,1.732,0,0,1,.57,1.365,2.654,2.654,0,0,1-.275,1.175A5.593,5.593,0,0,1,21.67-2.89L19.64-.69ZM29.1-7.12v.61L25.76,0h-.88L28.2-6.43H24.4v-.69Z" transform="translate(223.047 2603)" fill="#585858"/>
    <path id="Path_3512" data-name="Path 3512" d="M-.05,1.07a4.334,4.334,0,0,0,.72.08A.822.822,0,0,0,1.385.865a1.731,1.731,0,0,0,.2-.975V-7.12h.82V-.1a2.38,2.38,0,0,1-.375,1.5A1.505,1.505,0,0,1,.8,1.86a5.667,5.667,0,0,1-.85-.08ZM8.5-5.03V0H7.7V-.91a1.594,1.594,0,0,1-.665.725A2.045,2.045,0,0,1,6,.07,2.148,2.148,0,0,1,4.825-.25a2.1,2.1,0,0,1-.78-.9A3.178,3.178,0,0,1,3.77-2.52a3.2,3.2,0,0,1,.28-1.375,2.187,2.187,0,0,1,.785-.925A2.081,2.081,0,0,1,6-5.15a1.987,1.987,0,0,1,1.03.26,1.691,1.691,0,0,1,.67.73v-.87ZM6.16-.6A1.37,1.37,0,0,0,7.3-1.105,2.263,2.263,0,0,0,7.7-2.54a2.241,2.241,0,0,0-.4-1.43,1.375,1.375,0,0,0-1.14-.5,1.4,1.4,0,0,0-1.155.515A2.229,2.229,0,0,0,4.59-2.52,2.184,2.184,0,0,0,5-1.1,1.415,1.415,0,0,0,6.16-.6Zm6.42-4.55q1.81,0,1.81,1.99V0h-.81V-3.12a1.55,1.55,0,0,0-.28-1.025,1.1,1.1,0,0,0-.88-.325,1.494,1.494,0,0,0-1.12.43,1.589,1.589,0,0,0-.42,1.16V0h-.81V-3.62a11.266,11.266,0,0,0-.08-1.41h.77l.08.9a1.667,1.667,0,0,1,.69-.755A2.065,2.065,0,0,1,12.58-5.15ZM23.16-.69V0H18.58V-.62l2.49-2.76a5,5,0,0,0,.73-1.01,1.962,1.962,0,0,0,.23-.9,1.173,1.173,0,0,0-.34-.9,1.375,1.375,0,0,0-.97-.315,3.18,3.18,0,0,0-2.02.82l-.31-.63a3.084,3.084,0,0,1,1.06-.64,3.649,3.649,0,0,1,1.29-.24,2.254,2.254,0,0,1,1.55.505,1.732,1.732,0,0,1,.57,1.365,2.654,2.654,0,0,1-.275,1.175A5.593,5.593,0,0,1,21.67-2.89L19.64-.69Zm4.67-2.97a2.062,2.062,0,0,1,1.085.655A1.692,1.692,0,0,1,29.3-1.89a1.706,1.706,0,0,1-.69,1.435A3,3,0,0,1,26.75.07a3,3,0,0,1-1.86-.525A1.706,1.706,0,0,1,24.2-1.89a1.685,1.685,0,0,1,.395-1.12,2.045,2.045,0,0,1,1.085-.65,1.877,1.877,0,0,1-.98-.625,1.616,1.616,0,0,1-.34-1.025,1.681,1.681,0,0,1,.3-.995,1.948,1.948,0,0,1,.845-.66A3.118,3.118,0,0,1,26.75-7.2a3.118,3.118,0,0,1,1.245.235,1.948,1.948,0,0,1,.845.66,1.681,1.681,0,0,1,.3.995A1.6,1.6,0,0,1,28.8-4.285,1.9,1.9,0,0,1,27.83-3.66ZM25.18-5.25a1.148,1.148,0,0,0,.425.925,2.108,2.108,0,0,0,1.145.435A2.108,2.108,0,0,0,27.9-4.325a1.148,1.148,0,0,0,.425-.925,1.138,1.138,0,0,0-.415-.93,1.773,1.773,0,0,0-1.155-.34,1.773,1.773,0,0,0-1.155.34A1.138,1.138,0,0,0,25.18-5.25ZM26.75-.61a2.108,2.108,0,0,0,1.29-.34,1.165,1.165,0,0,0,.45-.99,1.122,1.122,0,0,0-.475-.945A2.5,2.5,0,0,0,26.75-3.32a2.5,2.5,0,0,0-1.265.435,1.122,1.122,0,0,0-.475.945,1.165,1.165,0,0,0,.45.99A2.108,2.108,0,0,0,26.75-.61Z" transform="translate(268.127 2603)" fill="#585858"/>
    <path id="Path_3513" data-name="Path 3513" d="M-.05,1.07a4.334,4.334,0,0,0,.72.08A.822.822,0,0,0,1.385.865a1.731,1.731,0,0,0,.2-.975V-7.12h.82V-.1a2.38,2.38,0,0,1-.375,1.5A1.505,1.505,0,0,1,.8,1.86a5.667,5.667,0,0,1-.85-.08ZM8.5-5.03V0H7.7V-.91a1.594,1.594,0,0,1-.665.725A2.045,2.045,0,0,1,6,.07,2.148,2.148,0,0,1,4.825-.25a2.1,2.1,0,0,1-.78-.9A3.178,3.178,0,0,1,3.77-2.52a3.2,3.2,0,0,1,.28-1.375,2.187,2.187,0,0,1,.785-.925A2.081,2.081,0,0,1,6-5.15a1.987,1.987,0,0,1,1.03.26,1.691,1.691,0,0,1,.67.73v-.87ZM6.16-.6A1.37,1.37,0,0,0,7.3-1.105,2.263,2.263,0,0,0,7.7-2.54a2.241,2.241,0,0,0-.4-1.43,1.375,1.375,0,0,0-1.14-.5,1.4,1.4,0,0,0-1.155.515A2.229,2.229,0,0,0,4.59-2.52,2.184,2.184,0,0,0,5-1.1,1.415,1.415,0,0,0,6.16-.6Zm6.42-4.55q1.81,0,1.81,1.99V0h-.81V-3.12a1.55,1.55,0,0,0-.28-1.025,1.1,1.1,0,0,0-.88-.325,1.494,1.494,0,0,0-1.12.43,1.589,1.589,0,0,0-.42,1.16V0h-.81V-3.62a11.266,11.266,0,0,0-.08-1.41h.77l.08.9a1.667,1.667,0,0,1,.69-.755A2.065,2.065,0,0,1,12.58-5.15ZM23.16-.69V0H18.58V-.62l2.49-2.76a5,5,0,0,0,.73-1.01,1.962,1.962,0,0,0,.23-.9,1.173,1.173,0,0,0-.34-.9,1.375,1.375,0,0,0-.97-.315,3.18,3.18,0,0,0-2.02.82l-.31-.63a3.084,3.084,0,0,1,1.06-.64,3.649,3.649,0,0,1,1.29-.24,2.254,2.254,0,0,1,1.55.505,1.732,1.732,0,0,1,.57,1.365,2.654,2.654,0,0,1-.275,1.175A5.593,5.593,0,0,1,21.67-2.89L19.64-.69ZM26.53-7.2a2.373,2.373,0,0,1,1.99.9,4.091,4.091,0,0,1,.7,2.56,4.745,4.745,0,0,1-.725,2.815A2.355,2.355,0,0,1,26.47.08a3.24,3.24,0,0,1-1.2-.23A3.239,3.239,0,0,1,24.24-.8l.32-.63a3.906,3.906,0,0,0,.97.625,2.364,2.364,0,0,0,.93.195,1.587,1.587,0,0,0,1.425-.82,4.392,4.392,0,0,0,.5-2.3v-.13a1.85,1.85,0,0,1-.75.885,2.2,2.2,0,0,1-1.19.325,2.281,2.281,0,0,1-1.15-.285,2,2,0,0,1-.78-.8,2.42,2.42,0,0,1-.28-1.175,2.349,2.349,0,0,1,.3-1.18,2.127,2.127,0,0,1,.815-.815A2.349,2.349,0,0,1,26.53-7.2Zm.05,3.86a1.542,1.542,0,0,0,1.14-.44,1.542,1.542,0,0,0,.44-1.14,1.555,1.555,0,0,0-.44-1.15,1.555,1.555,0,0,0-1.15-.44,1.46,1.46,0,0,0-1.1.435,1.593,1.593,0,0,0-.42,1.155,1.579,1.579,0,0,0,.42,1.145A1.472,1.472,0,0,0,26.58-3.34Z" transform="translate(312.287 2603)" fill="#585858"/>
    <path id="Path_3514" data-name="Path 3514" d="M-.05,1.07a4.334,4.334,0,0,0,.72.08A.822.822,0,0,0,1.385.865a1.731,1.731,0,0,0,.2-.975V-7.12h.82V-.1a2.38,2.38,0,0,1-.375,1.5A1.505,1.505,0,0,1,.8,1.86a5.667,5.667,0,0,1-.85-.08ZM8.5-5.03V0H7.7V-.91a1.594,1.594,0,0,1-.665.725A2.045,2.045,0,0,1,6,.07,2.148,2.148,0,0,1,4.825-.25a2.1,2.1,0,0,1-.78-.9A3.178,3.178,0,0,1,3.77-2.52a3.2,3.2,0,0,1,.28-1.375,2.187,2.187,0,0,1,.785-.925A2.081,2.081,0,0,1,6-5.15a1.987,1.987,0,0,1,1.03.26,1.691,1.691,0,0,1,.67.73v-.87ZM6.16-.6A1.37,1.37,0,0,0,7.3-1.105,2.263,2.263,0,0,0,7.7-2.54a2.241,2.241,0,0,0-.4-1.43,1.375,1.375,0,0,0-1.14-.5,1.4,1.4,0,0,0-1.155.515A2.229,2.229,0,0,0,4.59-2.52,2.184,2.184,0,0,0,5-1.1,1.415,1.415,0,0,0,6.16-.6Zm6.42-4.55q1.81,0,1.81,1.99V0h-.81V-3.12a1.55,1.55,0,0,0-.28-1.025,1.1,1.1,0,0,0-.88-.325,1.494,1.494,0,0,0-1.12.43,1.589,1.589,0,0,0-.42,1.16V0h-.81V-3.62a11.266,11.266,0,0,0-.08-1.41h.77l.08.9a1.667,1.667,0,0,1,.69-.755A2.065,2.065,0,0,1,12.58-5.15Zm9.15,1.49a1.757,1.757,0,0,1,.96.62,1.8,1.8,0,0,1,.33,1.11,1.82,1.82,0,0,1-.63,1.465A2.556,2.556,0,0,1,20.68.07a3.861,3.861,0,0,1-1.325-.23A3.025,3.025,0,0,1,18.28-.81l.32-.63a3.2,3.2,0,0,0,2.06.82,1.725,1.725,0,0,0,1.155-.34,1.247,1.247,0,0,0,.395-1q0-1.31-1.64-1.31h-.82v-.69h.66a1.844,1.844,0,0,0,1.21-.35,1.228,1.228,0,0,0,.42-1,1.135,1.135,0,0,0-.345-.89,1.409,1.409,0,0,0-.975-.31,3.18,3.18,0,0,0-2.02.82l-.31-.63a3.074,3.074,0,0,1,1.055-.645A3.677,3.677,0,0,1,20.75-7.2a2.287,2.287,0,0,1,1.535.49,1.645,1.645,0,0,1,.575,1.32,1.914,1.914,0,0,1-.3,1.07A1.665,1.665,0,0,1,21.73-3.66ZM26.75.08A2.108,2.108,0,0,1,24.9-.845,4.8,4.8,0,0,1,24.26-3.56,4.8,4.8,0,0,1,24.9-6.275,2.108,2.108,0,0,1,26.75-7.2a2.108,2.108,0,0,1,1.855.925A4.777,4.777,0,0,1,29.24-3.57,4.824,4.824,0,0,1,28.6-.85,2.1,2.1,0,0,1,26.75.08Zm0-.69a1.343,1.343,0,0,0,1.255-.72,4.743,4.743,0,0,0,.4-2.24,4.7,4.7,0,0,0-.4-2.22,1.344,1.344,0,0,0-1.26-.71,1.346,1.346,0,0,0-1.255.71,4.651,4.651,0,0,0-.405,2.22A4.747,4.747,0,0,0,25.5-1.335,1.341,1.341,0,0,0,26.75-.61Z" transform="translate(353.313 2603)" fill="#585858"/>
    <path id="Path_3515" data-name="Path 3515" d="M-.05,1.07a4.334,4.334,0,0,0,.72.08A.822.822,0,0,0,1.385.865a1.731,1.731,0,0,0,.2-.975V-7.12h.82V-.1a2.38,2.38,0,0,1-.375,1.5A1.505,1.505,0,0,1,.8,1.86a5.667,5.667,0,0,1-.85-.08ZM8.5-5.03V0H7.7V-.91a1.594,1.594,0,0,1-.665.725A2.045,2.045,0,0,1,6,.07,2.148,2.148,0,0,1,4.825-.25a2.1,2.1,0,0,1-.78-.9A3.178,3.178,0,0,1,3.77-2.52a3.2,3.2,0,0,1,.28-1.375,2.187,2.187,0,0,1,.785-.925A2.081,2.081,0,0,1,6-5.15a1.987,1.987,0,0,1,1.03.26,1.691,1.691,0,0,1,.67.73v-.87ZM6.16-.6A1.37,1.37,0,0,0,7.3-1.105,2.263,2.263,0,0,0,7.7-2.54a2.241,2.241,0,0,0-.4-1.43,1.375,1.375,0,0,0-1.14-.5,1.4,1.4,0,0,0-1.155.515A2.229,2.229,0,0,0,4.59-2.52,2.184,2.184,0,0,0,5-1.1,1.415,1.415,0,0,0,6.16-.6Zm6.42-4.55q1.81,0,1.81,1.99V0h-.81V-3.12a1.55,1.55,0,0,0-.28-1.025,1.1,1.1,0,0,0-.88-.325,1.494,1.494,0,0,0-1.12.43,1.589,1.589,0,0,0-.42,1.16V0h-.81V-3.62a11.266,11.266,0,0,0-.08-1.41h.77l.08.9a1.667,1.667,0,0,1,.69-.755A2.065,2.065,0,0,1,12.58-5.15Zm9.15,1.49a1.757,1.757,0,0,1,.96.62,1.8,1.8,0,0,1,.33,1.11,1.82,1.82,0,0,1-.63,1.465A2.556,2.556,0,0,1,20.68.07a3.861,3.861,0,0,1-1.325-.23A3.025,3.025,0,0,1,18.28-.81l.32-.63a3.2,3.2,0,0,0,2.06.82,1.725,1.725,0,0,0,1.155-.34,1.247,1.247,0,0,0,.395-1q0-1.31-1.64-1.31h-.82v-.69h.66a1.844,1.844,0,0,0,1.21-.35,1.228,1.228,0,0,0,.42-1,1.135,1.135,0,0,0-.345-.89,1.409,1.409,0,0,0-.975-.31,3.18,3.18,0,0,0-2.02.82l-.31-.63a3.074,3.074,0,0,1,1.055-.645A3.677,3.677,0,0,1,20.75-7.2a2.287,2.287,0,0,1,1.535.49,1.645,1.645,0,0,1,.575,1.32,1.914,1.914,0,0,1-.3,1.07A1.665,1.665,0,0,1,21.73-3.66ZM29-.69V0H25.03V-.69H26.6V-6.1l-1.46.93v-.79l1.82-1.16h.47V-.69Z" transform="translate(402.313 2603)" fill="#585858"/>
    <path id="Path_3516" data-name="Path 3516" d="M-.05,1.07a4.334,4.334,0,0,0,.72.08A.822.822,0,0,0,1.385.865a1.731,1.731,0,0,0,.2-.975V-7.12h.82V-.1a2.38,2.38,0,0,1-.375,1.5A1.505,1.505,0,0,1,.8,1.86a5.667,5.667,0,0,1-.85-.08ZM8.5-5.03V0H7.7V-.91a1.594,1.594,0,0,1-.665.725A2.045,2.045,0,0,1,6,.07,2.148,2.148,0,0,1,4.825-.25a2.1,2.1,0,0,1-.78-.9A3.178,3.178,0,0,1,3.77-2.52a3.2,3.2,0,0,1,.28-1.375,2.187,2.187,0,0,1,.785-.925A2.081,2.081,0,0,1,6-5.15a1.987,1.987,0,0,1,1.03.26,1.691,1.691,0,0,1,.67.73v-.87ZM6.16-.6A1.37,1.37,0,0,0,7.3-1.105,2.263,2.263,0,0,0,7.7-2.54a2.241,2.241,0,0,0-.4-1.43,1.375,1.375,0,0,0-1.14-.5,1.4,1.4,0,0,0-1.155.515A2.229,2.229,0,0,0,4.59-2.52,2.184,2.184,0,0,0,5-1.1,1.415,1.415,0,0,0,6.16-.6Zm6.42-4.55q1.81,0,1.81,1.99V0h-.81V-3.12a1.55,1.55,0,0,0-.28-1.025,1.1,1.1,0,0,0-.88-.325,1.494,1.494,0,0,0-1.12.43,1.589,1.589,0,0,0-.42,1.16V0h-.81V-3.62a11.266,11.266,0,0,0-.08-1.41h.77l.08.9a1.667,1.667,0,0,1,.69-.755A2.065,2.065,0,0,1,12.58-5.15ZM23.16-.69V0H18.58V-.62l2.49-2.76a5,5,0,0,0,.73-1.01,1.962,1.962,0,0,0,.23-.9,1.173,1.173,0,0,0-.34-.9,1.375,1.375,0,0,0-.97-.315,3.18,3.18,0,0,0-2.02.82l-.31-.63a3.084,3.084,0,0,1,1.06-.64,3.649,3.649,0,0,1,1.29-.24,2.254,2.254,0,0,1,1.55.505,1.732,1.732,0,0,1,.57,1.365,2.654,2.654,0,0,1-.275,1.175A5.593,5.593,0,0,1,21.67-2.89L19.64-.69Zm3.89-3.78a2.309,2.309,0,0,1,1.155.285,1.993,1.993,0,0,1,.785.8,2.42,2.42,0,0,1,.28,1.175,2.349,2.349,0,0,1-.3,1.18,2.127,2.127,0,0,1-.815.815,2.349,2.349,0,0,1-1.18.3,2.373,2.373,0,0,1-1.99-.9,4.091,4.091,0,0,1-.7-2.56,5.834,5.834,0,0,1,.325-2.06,2.791,2.791,0,0,1,.94-1.31A2.429,2.429,0,0,1,27.03-7.2a3.266,3.266,0,0,1,1.2.23,3.123,3.123,0,0,1,1.025.65l-.31.63a4.006,4.006,0,0,0-.96-.62,2.336,2.336,0,0,0-.94-.2,1.6,1.6,0,0,0-1.43.82,4.357,4.357,0,0,0-.51,2.3v.15a1.87,1.87,0,0,1,.75-.9A2.173,2.173,0,0,1,27.05-4.47ZM26.94-.61a1.46,1.46,0,0,0,1.1-.435A1.593,1.593,0,0,0,28.46-2.2a1.568,1.568,0,0,0-.425-1.145,1.476,1.476,0,0,0-1.1-.435,1.542,1.542,0,0,0-1.14.44,1.542,1.542,0,0,0-.44,1.14,1.555,1.555,0,0,0,.44,1.15A1.555,1.555,0,0,0,26.94-.61Z" transform="translate(177.967 2603)" fill="#585858"/>
    <path id="Path_3517" data-name="Path 3517" d="M2.6-6.42H.12v-.7H5.91v.7H3.43V0H2.6ZM8.12.07A2.4,2.4,0,0,1,6.87-.25a2.146,2.146,0,0,1-.835-.91,3.049,3.049,0,0,1-.3-1.38,3.049,3.049,0,0,1,.3-1.38,2.146,2.146,0,0,1,.835-.91,2.4,2.4,0,0,1,1.25-.32,2.4,2.4,0,0,1,1.25.32,2.146,2.146,0,0,1,.835.91,3.049,3.049,0,0,1,.3,1.38,3.049,3.049,0,0,1-.3,1.38,2.146,2.146,0,0,1-.835.91A2.4,2.4,0,0,1,8.12.07Zm0-.67a1.393,1.393,0,0,0,1.15-.5,2.255,2.255,0,0,0,.4-1.445,2.206,2.206,0,0,0-.41-1.425,1.387,1.387,0,0,0-1.14-.5,1.4,1.4,0,0,0-1.15.5A2.206,2.206,0,0,0,6.56-2.54a2.235,2.235,0,0,0,.4,1.445A1.407,1.407,0,0,0,8.12-.6Zm8.07-6.76V0h-.8V-.91a1.594,1.594,0,0,1-.665.725A2.045,2.045,0,0,1,13.69.07a2.081,2.081,0,0,1-1.165-.33,2.187,2.187,0,0,1-.785-.925,3.2,3.2,0,0,1-.28-1.375,3.178,3.178,0,0,1,.275-1.365,2.087,2.087,0,0,1,.785-.9,2.155,2.155,0,0,1,1.17-.32,2.018,2.018,0,0,1,1.03.255,1.612,1.612,0,0,1,.66.715V-7.36ZM13.85-.6a1.37,1.37,0,0,0,1.14-.505,2.263,2.263,0,0,0,.4-1.435,2.245,2.245,0,0,0-.4-1.425,1.37,1.37,0,0,0-1.14-.5,1.419,1.419,0,0,0-1.155.5,2.149,2.149,0,0,0-.415,1.41,2.247,2.247,0,0,0,.415,1.445A1.4,1.4,0,0,0,13.85-.6Zm8.34-4.43V0h-.8V-.91a1.594,1.594,0,0,1-.665.725A2.045,2.045,0,0,1,19.69.07a2.148,2.148,0,0,1-1.175-.32,2.1,2.1,0,0,1-.78-.9A3.178,3.178,0,0,1,17.46-2.52a3.2,3.2,0,0,1,.28-1.375,2.187,2.187,0,0,1,.785-.925,2.081,2.081,0,0,1,1.165-.33,1.987,1.987,0,0,1,1.03.26,1.691,1.691,0,0,1,.67.73v-.87ZM19.85-.6a1.37,1.37,0,0,0,1.14-.505,2.263,2.263,0,0,0,.4-1.435,2.241,2.241,0,0,0-.4-1.43,1.375,1.375,0,0,0-1.14-.5,1.4,1.4,0,0,0-1.155.515A2.229,2.229,0,0,0,18.28-2.52a2.184,2.184,0,0,0,.41,1.42A1.415,1.415,0,0,0,19.85-.6Zm8.33-4.43L25.83.46a2.913,2.913,0,0,1-.93,1.26,3.392,3.392,0,0,1-1.38.55l-.17-.63a2.961,2.961,0,0,0,1.075-.425A1.929,1.929,0,0,0,25.03.4l.2-.45L23.1-5.03h.85l1.7,4.15,1.72-4.15Z" transform="translate(80.313 2603)" fill="#585858"/>
    <path id="Path_3520" data-name="Path 3520" d="M5.25-.69V0H1.28V-.69H2.85V-6.1l-1.46.93v-.79L3.21-7.12h.47V-.69Zm6.42-.86H10.59V0H9.77V-1.55H6.49v-.62L9.92-7.12h.67v4.89h1.08Zm-1.9-.68v-3.5L7.34-2.23ZM15,.08a2.108,2.108,0,0,1-1.855-.925A4.8,4.8,0,0,1,12.51-3.56a4.8,4.8,0,0,1,.635-2.715A2.108,2.108,0,0,1,15-7.2a2.108,2.108,0,0,1,1.855.925A4.777,4.777,0,0,1,17.49-3.57a4.824,4.824,0,0,1-.635,2.72A2.1,2.1,0,0,1,15,.08Zm0-.69a1.343,1.343,0,0,0,1.255-.72,4.743,4.743,0,0,0,.4-2.24,4.7,4.7,0,0,0-.4-2.22A1.344,1.344,0,0,0,15-6.5a1.346,1.346,0,0,0-1.255.71,4.651,4.651,0,0,0-.4,2.22,4.747,4.747,0,0,0,.4,2.235A1.341,1.341,0,0,0,15-.61Zm6,.69a2.108,2.108,0,0,1-1.855-.925A4.8,4.8,0,0,1,18.51-3.56a4.8,4.8,0,0,1,.635-2.715A2.108,2.108,0,0,1,21-7.2a2.108,2.108,0,0,1,1.855.925A4.777,4.777,0,0,1,23.49-3.57a4.824,4.824,0,0,1-.635,2.72A2.1,2.1,0,0,1,21,.08Zm0-.69a1.343,1.343,0,0,0,1.255-.72,4.743,4.743,0,0,0,.4-2.24,4.7,4.7,0,0,0-.4-2.22A1.344,1.344,0,0,0,21-6.5a1.346,1.346,0,0,0-1.255.71,4.651,4.651,0,0,0-.405,2.22,4.747,4.747,0,0,0,.405,2.235A1.341,1.341,0,0,0,21-.61Z" transform="translate(38 2587)" fill="#585858"/>
    <path id="Path_3518" data-name="Path 3518" d="M5.41-.69V0H.83V-.62L3.32-3.38a5,5,0,0,0,.73-1.01,1.962,1.962,0,0,0,.23-.9,1.173,1.173,0,0,0-.34-.9,1.375,1.375,0,0,0-.97-.315,3.18,3.18,0,0,0-2.02.82L.64-6.32A3.084,3.084,0,0,1,1.7-6.96,3.649,3.649,0,0,1,2.99-7.2a2.254,2.254,0,0,1,1.55.505A1.732,1.732,0,0,1,5.11-5.33a2.654,2.654,0,0,1-.275,1.175A5.593,5.593,0,0,1,3.92-2.89L1.89-.69Zm5.94-6.43v.61L8.01,0H7.13l3.32-6.43H6.65v-.69ZM15,.08a2.108,2.108,0,0,1-1.855-.925A4.8,4.8,0,0,1,12.51-3.56a4.8,4.8,0,0,1,.635-2.715A2.108,2.108,0,0,1,15-7.2a2.108,2.108,0,0,1,1.855.925A4.777,4.777,0,0,1,17.49-3.57a4.824,4.824,0,0,1-.635,2.72A2.1,2.1,0,0,1,15,.08Zm0-.69a1.343,1.343,0,0,0,1.255-.72,4.743,4.743,0,0,0,.4-2.24,4.7,4.7,0,0,0-.4-2.22A1.344,1.344,0,0,0,15-6.5a1.346,1.346,0,0,0-1.255.71,4.651,4.651,0,0,0-.4,2.22,4.747,4.747,0,0,0,.4,2.235A1.341,1.341,0,0,0,15-.61Zm6,.69a2.108,2.108,0,0,1-1.855-.925A4.8,4.8,0,0,1,18.51-3.56a4.8,4.8,0,0,1,.635-2.715A2.108,2.108,0,0,1,21-7.2a2.108,2.108,0,0,1,1.855.925A4.777,4.777,0,0,1,23.49-3.57a4.824,4.824,0,0,1-.635,2.72A2.1,2.1,0,0,1,21,.08Zm0-.69a1.343,1.343,0,0,0,1.255-.72,4.743,4.743,0,0,0,.4-2.24,4.7,4.7,0,0,0-.4-2.22A1.344,1.344,0,0,0,21-6.5a1.346,1.346,0,0,0-1.255.71,4.651,4.651,0,0,0-.405,2.22,4.747,4.747,0,0,0,.405,2.235A1.341,1.341,0,0,0,21-.61Zm6,.69a2.108,2.108,0,0,1-1.855-.925A4.8,4.8,0,0,1,24.51-3.56a4.8,4.8,0,0,1,.635-2.715A2.108,2.108,0,0,1,27-7.2a2.108,2.108,0,0,1,1.855.925A4.777,4.777,0,0,1,29.49-3.57a4.824,4.824,0,0,1-.635,2.72A2.1,2.1,0,0,1,27,.08Zm0-.69a1.343,1.343,0,0,0,1.255-.72,4.743,4.743,0,0,0,.4-2.24,4.7,4.7,0,0,0-.4-2.22A1.344,1.344,0,0,0,27-6.5a1.346,1.346,0,0,0-1.255.71,4.651,4.651,0,0,0-.405,2.22,4.747,4.747,0,0,0,.405,2.235A1.341,1.341,0,0,0,27-.61Z" transform="translate(36 2514)" fill="#585858"/>
    <path id="Path_3519" data-name="Path 3519" d="M5.67-1.55H4.59V0H3.77V-1.55H.49v-.62L3.92-7.12h.67v4.89H5.67Zm-1.9-.68v-3.5L1.34-2.23ZM9,.08A2.108,2.108,0,0,1,7.145-.845,4.8,4.8,0,0,1,6.51-3.56a4.8,4.8,0,0,1,.635-2.715A2.108,2.108,0,0,1,9-7.2a2.108,2.108,0,0,1,1.855.925A4.777,4.777,0,0,1,11.49-3.57a4.824,4.824,0,0,1-.635,2.72A2.1,2.1,0,0,1,9,.08ZM9-.61a1.343,1.343,0,0,0,1.255-.72,4.743,4.743,0,0,0,.4-2.24,4.7,4.7,0,0,0-.4-2.22A1.344,1.344,0,0,0,9-6.5a1.346,1.346,0,0,0-1.255.71,4.651,4.651,0,0,0-.4,2.22,4.747,4.747,0,0,0,.4,2.235A1.341,1.341,0,0,0,9-.61Zm6,.69a2.108,2.108,0,0,1-1.855-.925A4.8,4.8,0,0,1,12.51-3.56a4.8,4.8,0,0,1,.635-2.715A2.108,2.108,0,0,1,15-7.2a2.108,2.108,0,0,1,1.855.925A4.777,4.777,0,0,1,17.49-3.57a4.824,4.824,0,0,1-.635,2.72A2.1,2.1,0,0,1,15,.08Zm0-.69a1.343,1.343,0,0,0,1.255-.72,4.743,4.743,0,0,0,.4-2.24,4.7,4.7,0,0,0-.4-2.22A1.344,1.344,0,0,0,15-6.5a1.346,1.346,0,0,0-1.255.71,4.651,4.651,0,0,0-.4,2.22,4.747,4.747,0,0,0,.4,2.235A1.341,1.341,0,0,0,15-.61Zm6,.69a2.108,2.108,0,0,1-1.855-.925A4.8,4.8,0,0,1,18.51-3.56a4.8,4.8,0,0,1,.635-2.715A2.108,2.108,0,0,1,21-7.2a2.108,2.108,0,0,1,1.855.925A4.777,4.777,0,0,1,23.49-3.57a4.824,4.824,0,0,1-.635,2.72A2.1,2.1,0,0,1,21,.08Zm0-.69a1.343,1.343,0,0,0,1.255-.72,4.743,4.743,0,0,0,.4-2.24,4.7,4.7,0,0,0-.4-2.22A1.344,1.344,0,0,0,21-6.5a1.346,1.346,0,0,0-1.255.71,4.651,4.651,0,0,0-.405,2.22,4.747,4.747,0,0,0,.405,2.235A1.341,1.341,0,0,0,21-.61Zm6,.69a2.108,2.108,0,0,1-1.855-.925A4.8,4.8,0,0,1,24.51-3.56a4.8,4.8,0,0,1,.635-2.715A2.108,2.108,0,0,1,27-7.2a2.108,2.108,0,0,1,1.855.925A4.777,4.777,0,0,1,29.49-3.57a4.824,4.824,0,0,1-.635,2.72A2.1,2.1,0,0,1,27,.08Zm0-.69a1.343,1.343,0,0,0,1.255-.72,4.743,4.743,0,0,0,.4-2.24,4.7,4.7,0,0,0-.4-2.22A1.344,1.344,0,0,0,27-6.5a1.346,1.346,0,0,0-1.255.71,4.651,4.651,0,0,0-.405,2.22,4.747,4.747,0,0,0,.405,2.235A1.341,1.341,0,0,0,27-.61Z" transform="translate(36 2438)" fill="#585858"/>
    <g id="Group_40655" data-name="Group 40655" transform="translate(95.998 2477.941)">
      <ellipse id="Ellipse_273" data-name="Ellipse 273" cx="0.981" cy="0.981" rx="0.981" ry="0.981" transform="translate(131.905 91.259)" fill="#8dd747"/>
      <ellipse id="Ellipse_288" data-name="Ellipse 288" cx="0.981" cy="0.981" rx="0.981" ry="0.981" transform="translate(90.908 61.821)" fill="#8dd747"/>
      <ellipse id="Ellipse_282" data-name="Ellipse 282" cx="0.981" cy="0.981" rx="0.981" ry="0.981" transform="translate(131.905 55.933)" fill="#8dd747"/>
      <ellipse id="Ellipse_287" data-name="Ellipse 287" cx="0.981" cy="0.981" rx="0.981" ry="0.981" transform="translate(90.908 27.476)" fill="#8dd747"/>
      <ellipse id="Ellipse_276" data-name="Ellipse 276" cx="0.981" cy="0.981" rx="0.981" ry="0.981" transform="translate(180.542 78.503)" fill="#8dd747"/>
      <ellipse id="Ellipse_283" data-name="Ellipse 283" cx="0.981" cy="0.981" rx="0.981" ry="0.981" transform="translate(180.542 44.158)" fill="#8dd747"/>
      <ellipse id="Ellipse_277" data-name="Ellipse 277" cx="0.981" cy="0.981" rx="0.981" ry="0.981" transform="translate(225.95 34.345)" fill="#8dd747"/>
      <ellipse id="Ellipse_284" data-name="Ellipse 284" cx="0.981" cy="0.981" rx="0.981" ry="0.981" transform="translate(225.95)" fill="#8dd747"/>
      <ellipse id="Ellipse_278" data-name="Ellipse 278" cx="0.981" cy="0.981" rx="0.981" ry="0.981" transform="translate(266.772 60.84)" fill="#8dd747"/>
      <ellipse id="Ellipse_285" data-name="Ellipse 285" cx="0.981" cy="0.981" rx="0.981" ry="0.981" transform="translate(266.772 27.476)" fill="#8dd747"/>
      <ellipse id="Ellipse_279" data-name="Ellipse 279" cx="0.981" cy="0.981" rx="0.981" ry="0.981" transform="translate(316.767 86.353)" fill="#8dd747"/>
      <ellipse id="Ellipse_286" data-name="Ellipse 286" cx="0.981" cy="0.981" rx="0.981" ry="0.981" transform="translate(316.767 52.008)" fill="#8dd747"/>
      <ellipse id="Ellipse_275" data-name="Ellipse 275" cx="0.981" cy="0.981" rx="0.981" ry="0.981" transform="translate(50.046 66.727)" fill="#8dd747"/>
      <ellipse id="Ellipse_281" data-name="Ellipse 281" cx="0.981" cy="0.981" rx="0.981" ry="0.981" transform="translate(50.046 32.382)" fill="#8dd747"/>
      <ellipse id="Ellipse_274" data-name="Ellipse 274" cx="0.981" cy="0.981" rx="0.981" ry="0.981" transform="translate(0 86.353)" fill="#8dd747"/>
      <ellipse id="Ellipse_280" data-name="Ellipse 280" cx="0.981" cy="0.981" rx="0.981" ry="0.981" transform="translate(0 52.008)" fill="#8dd747"/>
    </g>
    <path id="Path_1607" data-name="Path 1607" d="M5454,18314.189s54.709-34.986,95.865-36.557,34.268,36.826,68.762,30.275,33.554-56.125,69.213-56.473,48.233,63.613,73.425,55.084,2.263-.879,2.263-.879l42.989-14.309v31.105H5454Z" transform="translate(-5372.518 -15776.938)" opacity="0.467" fill="url(#linear-gradient)"/>
    <path id="Path_1608" data-name="Path 1608" d="M-530.533,23287.248s108.364-69.822,139.389-15.473,64.252-43.158,94.329-48.2c44.653-3.361,44.83,93.664,122.243,41.809" transform="translate(607.313 -20749.5)" fill="none" stroke="#0da304" stroke-width="2"/>
    <path id="Path_1609" data-name="Path 1609" d="M-530.533,23287.248s101.63-69.182,138.869-15.473,61.475-48.193,93.978-48.2,47.768,80.154,107.676,45.137" transform="translate(607.324 -20713.578)" fill="none" stroke="#c1c1c1" stroke-width="1" opacity="0.34"/>
    <line id="Line_76" data-name="Line 76" y2="80.098" transform="translate(190.398 2505.402)" fill="none" stroke="#0da304" stroke-width="1"/>
    <g transform="matrix(1, 0, 0, 1, 36.49, 2430.8)" filter="url(#Ellipse_315)">
      <g id="Ellipse_315-2" data-name="Ellipse 315" transform="translate(148.5 66.1)" fill="#0da304" stroke="#fff" stroke-width="2">
        <circle cx="5.5" cy="5.5" r="5.5" stroke="none"/>
        <circle cx="5.5" cy="5.5" r="4.5" fill="none"/>
      </g>
    </g>
    <g id="Group_40661" data-name="Group 40661" transform="translate(167.828 2473)">
      <g id="Group_40662" data-name="Group 40662">
        <rect id="Rectangle_1243" data-name="Rectangle 1243" width="45.072" height="17.824" rx="4" transform="translate(0.456 2.24)" fill="rgba(8,38,6,0.97)"/>
        <path id="Path_3521" data-name="Path 3521" d="M4.36-.68V0H.624V-.616l1.96-2.152a3.6,3.6,0,0,0,.548-.756A1.487,1.487,0,0,0,3.3-4.2a.852.852,0,0,0-.248-.66,1.028,1.028,0,0,0-.72-.228,2.558,2.558,0,0,0-1.584.624l-.3-.608a2.478,2.478,0,0,1,.856-.5A3.063,3.063,0,0,1,2.36-5.76a1.919,1.919,0,0,1,1.292.408,1.379,1.379,0,0,1,.476,1.1,2.121,2.121,0,0,1-.216.94,4.275,4.275,0,0,1-.72.988L1.672-.68ZM8.112-2.928a1.659,1.659,0,0,1,.86.52,1.338,1.338,0,0,1,.308.888A1.362,1.362,0,0,1,8.716-.364,2.482,2.482,0,0,1,7.2.056a2.482,2.482,0,0,1-1.516-.42A1.362,1.362,0,0,1,5.12-1.52a1.339,1.339,0,0,1,.312-.9A1.64,1.64,0,0,1,6.3-2.928a1.58,1.58,0,0,1-.772-.5,1.252,1.252,0,0,1-.276-.808,1.332,1.332,0,0,1,.248-.8,1.6,1.6,0,0,1,.688-.532A2.545,2.545,0,0,1,7.2-5.76a2.545,2.545,0,0,1,1.008.188A1.6,1.6,0,0,1,8.9-5.04a1.332,1.332,0,0,1,.248.8,1.281,1.281,0,0,1-.272.812A1.5,1.5,0,0,1,8.112-2.928ZM6.048-4.168a.838.838,0,0,0,.312.676,1.628,1.628,0,0,0,.84.332,1.628,1.628,0,0,0,.84-.332.838.838,0,0,0,.312-.676.823.823,0,0,0-.308-.684A1.324,1.324,0,0,0,7.2-5.1a1.324,1.324,0,0,0-.844.244A.823.823,0,0,0,6.048-4.168ZM7.2-.608a1.58,1.58,0,0,0,.952-.248.84.84,0,0,0,.336-.72.829.829,0,0,0-.348-.7,1.941,1.941,0,0,0-.94-.332,1.941,1.941,0,0,0-.94.332.829.829,0,0,0-.348.7.84.84,0,0,0,.336.72A1.58,1.58,0,0,0,7.2-.608ZM11.824-5.76a1.947,1.947,0,0,1,1.624.72,3.268,3.268,0,0,1,.568,2.064,4.483,4.483,0,0,1-.268,1.636A2.236,2.236,0,0,1,12.972-.3a2.042,2.042,0,0,1-1.212.36,2.717,2.717,0,0,1-.976-.18A2.5,2.5,0,0,1,9.96-.624l.288-.608a3.031,3.031,0,0,0,.764.476,1.911,1.911,0,0,0,.724.148,1.2,1.2,0,0,0,1.076-.612,3.31,3.31,0,0,0,.38-1.74v-.024a1.381,1.381,0,0,1-.572.656,1.717,1.717,0,0,1-.908.24,1.809,1.809,0,0,1-.912-.228,1.6,1.6,0,0,1-.624-.64A1.953,1.953,0,0,1,9.952-3.9a1.892,1.892,0,0,1,.24-.956,1.727,1.727,0,0,1,.668-.66A1.937,1.937,0,0,1,11.824-5.76Zm.04,3a1.118,1.118,0,0,0,.832-.324,1.139,1.139,0,0,0,.32-.836,1.149,1.149,0,0,0-.32-.844,1.118,1.118,0,0,0-.832-.324,1.062,1.062,0,0,0-.808.32,1.18,1.18,0,0,0-.3.848,1.16,1.16,0,0,0,.308.84A1.066,1.066,0,0,0,11.864-2.76ZM18.728-5.7v.616L16.1,0h-.888l2.624-5.016h-2.96V-5.7Zm4.8,0v.616L20.9,0h-.888l2.624-5.016h-2.96V-5.7Z" transform="translate(12 14)" fill="#fff"/>
      </g>
    </g>
  </g>
</svg>
