<svg id="vuesax_bulk_group" data-name="vuesax/bulk/group" xmlns="http://www.w3.org/2000/svg" width="20.832" height="20.685" viewBox="0 0 20.832 20.685">
  <g id="group">
    <path id="Vector" d="M0,0H20.832V20.685H0Z" fill="none" opacity="0"/>
    <path id="Vector-2" data-name="Vector" d="M17.36,7.757v2.586a2.591,2.591,0,0,1-2.6,2.586h-.868a1.736,1.736,0,0,0-3.472,0H6.944a1.736,1.736,0,0,0-3.472,0H2.6A2.591,2.591,0,0,1,0,10.343V7.757H9.548a1.735,1.735,0,0,0,1.736-1.724V0h1.6a1.752,1.752,0,0,1,1.51.871l1.484,2.577h-1.12a.868.868,0,0,0-.868.862V6.9a.868.868,0,0,0,.868.862Z" transform="translate(1.736 4.309)" fill="#0da304" opacity="0.4"/>
    <path id="Vector-3" data-name="Vector" d="M3.472,1.724A1.736,1.736,0,1,1,1.736,0,1.73,1.73,0,0,1,3.472,1.724Z" transform="translate(5.208 15.514)" fill="#0da304"/>
    <path id="Vector-4" data-name="Vector" d="M3.472,1.724A1.736,1.736,0,1,1,1.736,0,1.73,1.73,0,0,1,3.472,1.724Z" transform="translate(12.152 15.514)" fill="#0da304"/>
    <path id="Vector-5" data-name="Vector" d="M3.472,3.043V4.309H.868A.868.868,0,0,1,0,3.448V.862A.868.868,0,0,1,.868,0h1.12L3.246,2.189A1.719,1.719,0,0,1,3.472,3.043Z" transform="translate(15.624 7.757)" fill="#0da304"/>
    <g id="Group-2" data-name="Group" transform="translate(0.217 1.724)">
      <path id="Vector-6" data-name="Vector" d="M10.416,0H3.472a3.459,3.459,0,0,0-3.4,2.8H4.34a.646.646,0,1,1,0,1.293H0V5.387H2.6a.646.646,0,1,1,0,1.293H0V7.973H.868a.646.646,0,1,1,0,1.293H0v1.077H9.548a1.735,1.735,0,0,0,1.736-1.724V.862A.868.868,0,0,0,10.416,0Z" transform="translate(1.519)" fill="#0da304"/>
      <path id="Vector-7" data-name="Vector" d="M1.588,0H.651A.653.653,0,0,0,0,.646a.653.653,0,0,0,.651.646h.868V.646A3.139,3.139,0,0,1,1.588,0Z" transform="translate(0 2.801)" fill="#0da304"/>
      <path id="Vector-8" data-name="Vector" d="M.651,0A.653.653,0,0,0,0,.646a.653.653,0,0,0,.651.646h.868V0Z" transform="translate(0 5.387)" fill="#0da304"/>
      <path id="Vector-9" data-name="Vector" d="M.651,0A.653.653,0,0,0,0,.646a.653.653,0,0,0,.651.646h.868V0Z" transform="translate(0 7.973)" fill="#0da304"/>
    </g>
  </g>
</svg>
