<svg id="vuesax_bulk_bag-tick" data-name="vuesax/bulk/bag-tick" xmlns="http://www.w3.org/2000/svg" width="20.832" height="20.832" viewBox="0 0 20.832 20.832">
  <g id="bag-tick">
    <path id="Vector" d="M14.964,3.11h-.347L11.683.176a.613.613,0,0,0-.859,0,.613.613,0,0,0,0,.859L12.9,3.11H4.462L6.536,1.035a.613.613,0,0,0,0-.859.613.613,0,0,0-.859,0L2.752,3.11H2.4c-.781,0-2.4,0-2.4,2.222A2.366,2.366,0,0,0,.538,7.094a1.4,1.4,0,0,0,.729.391,3.357,3.357,0,0,0,.781.069H15.312a3.625,3.625,0,0,0,.764-.069c.729-.174,1.285-.694,1.285-2.153C17.36,3.11,15.737,3.11,14.964,3.11Z" transform="translate(1.736 1.734)" fill="#0da304" opacity="0.4"/>
    <path id="Vector-2" data-name="Vector" d="M14.062.078H.781A2.986,2.986,0,0,1,0,0L1.094,6.675c.252,1.493.9,3.212,3.793,3.212H9.756c2.925,0,3.446-1.467,3.758-3.107L14.825,0A3.17,3.17,0,0,1,14.062.078ZM9.913,3.854l-2.821,2.6a.662.662,0,0,1-.443.174.644.644,0,0,1-.46-.191l-1.3-1.3a.651.651,0,1,1,.92-.92l.859.859L9.027,2.9a.655.655,0,0,1,.92.035A.64.64,0,0,1,9.913,3.854Z" transform="translate(3.003 9.21)" fill="#0da304"/>
    <path id="Vector-3" data-name="Vector" d="M0,0H20.832V20.832H0Z" fill="none" opacity="0"/>
  </g>
</svg>
