<svg id="vuesax_bulk_money-recive" data-name="vuesax/bulk/money-recive" xmlns="http://www.w3.org/2000/svg" width="20.832" height="20.685" viewBox="0 0 20.832 20.685">
  <g id="money-recive">
    <path id="Vector" d="M0,0H20.832V20.685H0Z" fill="none" opacity="0"/>
    <g id="Group" transform="translate(1.736 1.724)">
      <path id="Vector-2" data-name="Vector" d="M0,.664H1.18C1.016.431.842.215.66,0Z" transform="translate(14.591 2.999)" fill="#0da304" opacity="0.4"/>
      <path id="Vector-3" data-name="Vector" d="M.668.517C.451.336.234.164,0,0V1.172Z" transform="translate(13.671 1.569)" fill="#0da304" opacity="0.4"/>
      <path id="Vector-4" data-name="Vector" d="M13.02,4.956a.658.658,0,0,1-.252-.052.677.677,0,0,1-.356-.353.615.615,0,0,1-.052-.25V.853c0-.009.009-.017.009-.034A8.784,8.784,0,0,0,8.68,0a8.619,8.619,0,1,0,8.68,8.619,8.566,8.566,0,0,0-.833-3.672c-.009,0-.017.009-.035.009Z" fill="#0da304" opacity="0.4"/>
    </g>
    <path id="Vector-5" data-name="Vector" d="M.92,3.644,3.481,1.1a.647.647,0,0,0,0-.914.658.658,0,0,0-.92,0L0,2.73A10.191,10.191,0,0,1,.92,3.644Z" transform="translate(16.075 1.08)" fill="#0da304"/>
    <path id="Vector-6" data-name="Vector" d="M1.293.646A.653.653,0,0,0,.642,0,.645.645,0,0,0,0,.612a9.114,9.114,0,0,1,1.293.741Z" transform="translate(14.114 1.939)" fill="#0da304"/>
    <path id="Vector-7" data-name="Vector" d="M1.371.646A.653.653,0,0,0,.72,0H0A8.262,8.262,0,0,1,.746,1.284.646.646,0,0,0,1.371.646Z" transform="translate(17.508 5.387)" fill="#0da304"/>
    <path id="Vector-8" data-name="Vector" d="M4.34,4.37l-.868-.3V2.155h.069a.832.832,0,0,1,.8.862.651.651,0,0,0,1.3,0A2.127,2.127,0,0,0,3.541.862H3.472V.646a.651.651,0,0,0-1.3,0V.862H1.91A1.94,1.94,0,0,0,0,2.827,1.768,1.768,0,0,0,1.3,4.689l.868.3V6.9H2.1a.832.832,0,0,1-.8-.862.651.651,0,0,0-1.3,0A2.127,2.127,0,0,0,2.1,8.2H2.17v.215a.651.651,0,0,0,1.3,0V8.2h.26a1.94,1.94,0,0,0,1.91-1.965A1.754,1.754,0,0,0,4.34,4.37ZM1.727,3.456c-.3-.1-.425-.164-.425-.638a.647.647,0,0,1,.608-.672h.26V3.6ZM3.732,6.9h-.26V5.439l.443.155c.3.1.425.164.425.638A.644.644,0,0,1,3.732,6.9Z" transform="translate(7.595 5.818)" fill="#0da304"/>
  </g>
</svg>
